<svg xmlns="http://www.w3.org/2000/svg" width="307" height="297" fill="none" viewBox="0 0 307 297"><path fill="#FC0" stroke="#A80" stroke-width="5.118" d="M186.458 159.182c-2.733 1.059-11.545 12.543-17.847 24.301l-5.946 110.568 13.977.028-.223-101.677c3.322-10.418 11.863-21.271 16.954-26.976l-6.915-6.244Zm-67.425 1.561c2.732 1.059 10.653 10.982 16.954 22.74l4.378 110.553H128.04l.14-101.635c-3.323-10.418-11.417-19.265-16.508-24.97l7.361-6.688Z"/><path fill="#FC0" stroke="#A80" stroke-width="5.118" d="M169.476 158.513h-34.354v135.551h34.354V158.513Z"/><path fill="#FFE680" stroke="#A80" stroke-width="5.118" d="m55.063 26.53 72.055 128.639 17.401-6.019 30.562 2.006 76.294-122.843C184.338-.406 119.127-1.83 55.063 26.53Z"/><path fill="#FC0" stroke="#A80" stroke-width="5.118" d="m55.063 26.53 75.178 70.896-30.562 9.587L55.063 26.53Z"/><path fill="#FC0" stroke="#A80" stroke-width="5.118" d="m86.071 17.389.892 59.08 32.347 27.646 8.031-36.563-41.27-50.163Z"/><path fill="#FC0" stroke="#A80" stroke-width="5.118" d="m107.71 10.924-2.454 70.45 35.693 16.275-12.492-43.697-20.747-43.028Z"/><path fill="#D40000" stroke="#A80" stroke-width="5.118" d="m95.218 41.021-.67 45.704 26.324 23.186-.669-40.799-24.985-28.09Z"/><path fill="#FC0" stroke="#A80" stroke-width="5.118" d="m128.457 9.586-13.608 78.7 36.585 17.389V52.392L128.457 9.586Z"/><path fill="#FC0" stroke="#A80" stroke-width="5.118" d="m179.096 9.586-30.339 76.247 25.431 23.187 20.97-28.314-16.062-71.12Z"/><path fill="#D40000" stroke="#A80" stroke-width="5.118" d="m133.471 29.763 18.147 41.957-15.421 31.499-15.029-37.94 12.303-35.516Z"/><path fill="#00A" stroke="#A80" stroke-width="5.118" d="m112.841 40.575 39.932 73.795-29.224 5.797-16.508-20.288 6.915-8.472-1.115-50.832Z"/><path fill="#00A" stroke="#A80" stroke-width="5.118" d="m72.017 57.296 96.77 72.407-42.115 17.663-54.655-90.07Z"/><path fill="#FC0" stroke="#A80" stroke-width="5.118" d="m201.851 12.707-37.478 68.89 37.701 9.587-.223-78.477Z"/><path fill="#FC0" stroke="#A80" stroke-width="5.118" d="m225.497 20.733-71.609 74.24 69.601-24.969 2.008-49.27Z"/><path fill="#D40000" stroke="#A80" stroke-width="5.118" d="m177.901 29.986-18.147 41.957 15.421 31.499 15.029-37.94-12.303-35.516Z"/><path fill="#FC0" stroke="#A80" stroke-width="5.118" d="m251.375 28.313-75.402 67.33 26.77 10.924 48.632-78.254Z"/><path fill="#D40000" stroke="#A80" stroke-width="5.118" d="m217.193 40.992-31.089 33.525 4.047 34.833 26.812-30.774.23-37.584Z"/><path fill="#00A" stroke="#A80" stroke-width="5.118" d="m192.704 40.575-39.931 73.795 29.223 5.797 16.508-20.288-6.915-8.472 1.115-50.832Z"/><path fill="#00A" stroke="#A80" stroke-width="5.118" d="m233.528 57.296-96.77 72.407 42.115 17.663 54.655-90.07Z"/><path fill="#FC0" d="m135.595 158.513-22.411-26.607c5.714-.122 12.07-3.454 17.036.157l46.377.001c5.161-3.762 11.146-.112 16.72-.159l-23.367 26.608"/><path stroke="#A80" stroke-width="5.118" d="m135.595 158.513-22.411-26.607c5.714-.122 12.07-3.454 17.036.157l46.377.001c5.161-3.762 11.146-.112 16.72-.159l-23.367 26.608"/><path fill="#FC0" stroke="#A80" stroke-width="5.118" d="M151.434 8.248c-9.317 34.482-20.874 67.539-24.093 105.899 1.833 12.37 2.849 25.012 9.816 35.672 9.033 3.341 18.539 5.672 31.677.223 8.785-9.828 8.616-23.786 10.039-37.009-1.28-38.073-14.594-71.335-27.439-104.785Z"/><path fill="#00A" stroke="#A80" stroke-width="3.662" d="M152.236 29.51c-6.667 24.671-15.725 48.482-18.028 75.929.268 7.509-.256 15.018 4.026 22.528 4.541-3.625 16.218-9.723 30.553 1.736 2.469-11.609 1.855-14.558 2.924-23.958-.916-27.242-10.285-52.302-19.475-76.236Z"/><path fill="#00A" stroke="#A80" stroke-width="3.662" d="M152.236 29.51c-6.667 24.671-15.725 48.482-18.028 75.929.268 7.509-.256 15.018 4.026 22.528 4.541-3.625 16.218-9.723 30.553 1.736 2.469-11.609 1.855-14.558 2.924-23.958-.916-27.242-10.285-52.302-19.475-76.236Z"/><path fill="#FC0" stroke="#A80" stroke-width="5.344" d="M20.38 50.85c15.764 33.81 28.78 67.986 52.027 100.795 9.79 8.65 19.11 18.066 31.849 21.899 9.465-3.402 18.627-7.929 25.455-21.113.403-13.756-9.126-24.793-16.889-36.313C86.175 86.563 53.153 68.938 20.38 50.85Z"/><path fill="#00A" stroke="#A80" stroke-width="4.049" d="M35.325 67.291c13.362 26.561 24.671 53.282 43.622 79.407 7.752 7.05 15.184 14.665 24.944 18.16.479-10.855 4.999-16.818 18.231-15.029-.304-10.505-7.967-19.37-14.32-28.526-21.366-23.786-47.005-38.727-72.477-54.012Z"/><path fill="#D40000" stroke="#A80" stroke-width="5.306" d="M74.829 112.699c-3.902 3.45-7.26 7.425-10.17 11.837 3.992 6.834 8.276 13.639 13.095 20.408 5.354-14.424 15.951-21.277 28.668-25.086-5.507-5.986-11.299-11.411-17.277-16.419-5.389 2.488-10.153 5.583-14.316 9.26Z"/><path fill="#FC0" stroke="#A80" stroke-width="5.344" d="M286.047 50.85c-15.764 33.81-28.78 67.986-52.027 100.795-9.79 8.65-19.11 18.066-31.849 21.899-9.465-3.402-18.627-7.929-25.455-21.113-.403-13.756 9.127-24.793 16.889-36.313 26.647-29.555 59.669-47.18 92.442-65.268Z"/><path fill="#00A" stroke="#A80" stroke-width="4.049" d="M271.102 67.291c-13.362 26.561-24.671 53.282-43.622 79.407-7.752 7.05-15.184 14.665-24.944 18.16-.478-10.855-4.999-16.818-18.231-15.029.305-10.505 7.967-19.369 14.32-28.525 21.366-23.787 47.005-38.728 72.477-54.013Z"/><path fill="#D40000" stroke="#A80" stroke-width="5.306" d="M231.598 112.699c3.902 3.45 7.26 7.425 10.17 11.837-3.992 6.834-8.276 13.639-13.095 20.408-5.354-14.424-15.951-21.277-28.668-25.086 5.507-5.986 11.299-11.411 17.278-16.419 5.388 2.488 10.152 5.583 14.315 9.26Z"/><path fill="#D4AA00" stroke="#A80" stroke-width="2.047" d="M168.77 158.513h-33.016v3.902h33.016v-3.902Zm0 7.692h-33.016v3.902h33.016v-3.902Zm0 9.252h-33.016v3.902h33.016v-3.902Zm0 7.803h-33.016v3.902h33.016v-3.902Z"/><path fill="#D4AA00" stroke="#A80" stroke-width="2.416" d="M175.343 192.911h-46.162v3.885h46.162v-3.885Zm0 7.216h-46.162v3.885h46.162v-3.885Zm0 6.772h-46.162v3.886h46.162v-3.886Zm0 6.772h-46.162v3.886h46.162v-3.886Zm0 6.439h-46.162v3.886h46.162v-3.886Z"/><path fill="#D4AA00" stroke="#A80" stroke-width="2.423" d="M175.435 258.776h-46.347v3.894h46.347v-3.894Zm0 8.26h-46.347v3.893h46.347v-3.893Zm0 8.26h-46.347v3.894h46.347v-3.894Zm0 8.26h-46.347v3.894h46.347v-3.894Zm0-33.04h-46.347v3.893h46.347v-3.893Z"/></svg>