<svg width="604" height="613" viewBox="0 0 604 613" fill="none" xmlns="http://www.w3.org/2000/svg">
<path d="M214.78 256.483C212.894 255.946 211.19 255.62 209.641 254.946C208.961 254.65 208.59 253.636 208.078 252.948C208.7 252.536 209.273 251.945 209.957 251.752C211.156 251.415 212.423 251.326 213.787 251.113C213.88 250.442 213.746 249.521 214.144 249.053C214.594 248.524 215.563 248.077 216.233 248.163C219.314 248.561 222.13 247.798 225.081 247.014C227.025 246.499 229.406 247.104 231.463 247.664C237.838 249.4 243.41 247.327 248.844 244.374C249.5 244.016 250.008 243.38 250.816 242.672C248.16 242.875 245.88 243.047 243.152 243.253C243.633 241.785 243.929 240.881 244.293 239.77C243.104 239.887 242.002 239.997 241.146 240.08C239.868 238.756 238.749 237.601 237.629 236.442C236.039 236.542 233.826 237.343 232.988 236.597C231.274 235.078 229.378 235.72 227.159 235.084C227.901 234.19 228.468 233.503 229.21 232.606C227.661 232.227 226.187 231.866 224.322 231.413C224.944 230.57 225.349 230.02 225.854 229.339C223.982 228.188 221.072 228.04 220.169 225.035C221.942 223.938 223.642 224.588 225.277 224.595C226.61 224.598 227.942 224.578 229.275 224.547C230.189 224.526 231.12 224.334 232.009 224.468C234.469 224.836 236.901 225.654 239.25 223.935C239.686 223.615 240.669 223.715 241.242 223.969C244.811 225.54 248.555 224.781 252.076 224.32C255.971 223.811 259.722 222.178 263.532 221.023C263.965 220.892 264.377 220.689 264.796 220.517C264.634 220.232 264.476 219.943 264.315 219.658C262.378 219.658 260.44 219.658 258.366 219.658C258.125 218.633 257.933 217.808 257.716 216.89C256.387 217.406 255.25 217.946 254.055 218.293C252.55 218.73 250.908 219.479 249.998 217.248C249.892 216.983 249.043 216.852 248.586 216.932C247.25 217.172 246.285 216.928 246.175 215.484C243.575 214.999 240.342 218.455 238.91 214.13C237.175 214.13 235.513 214.13 233.85 214.13C233.139 211.75 228.798 213.717 229.32 210.135C226.974 209.595 224.511 210.269 222.467 208.151C223.37 207.247 224.209 206.408 225.122 205.49C223.583 205.06 222.041 204.785 220.633 204.194C218.706 203.386 218.5 201.894 219.987 200.422C221.413 199.012 223.226 198.48 225.05 199.136C228.293 200.305 231.374 199.759 234.452 198.724C236.846 197.919 239.123 197.933 241.449 198.999C243.564 199.968 245.787 200.305 248.143 199.869C249.479 199.621 250.895 199.831 252.248 199.649C254.474 199.349 256.676 198.899 258.888 198.514C258.891 198.256 258.891 198.002 258.895 197.744C257.768 197.366 256.542 197.149 255.549 196.547C254.886 196.145 254.553 195.196 254.072 194.491C254.68 194.096 255.24 193.56 255.903 193.333C261.165 191.528 266.448 189.788 271.71 187.994C272.092 187.863 272.373 187.447 273.022 186.887C271.339 186.079 269.986 185.161 268.502 184.81C267.544 184.583 266.304 184.999 265.342 185.453C263.923 186.12 262.642 187.079 261.048 188.073C260.664 187.117 260.389 186.436 260.086 185.687C257.696 186.969 255.257 188.279 252.725 189.634C252.179 188.702 251.853 188.145 251.492 187.526C251.176 187.622 250.847 187.691 250.544 187.822C249.39 188.32 248.263 188.887 247.089 189.338C245.461 189.964 244.379 189.585 244.53 187.426C242.771 187.863 241.263 188.386 239.71 188.595C236.54 189.025 235.918 188.093 237.203 184.8C236.543 184.648 235.898 184.549 235.283 184.349C234.75 184.177 234.256 183.892 233.366 183.479C234.187 182.489 234.86 181.674 235.781 180.567C234.355 180.382 233.081 180.268 231.831 180.035C230.944 179.869 230.007 179.687 229.251 179.244C228.753 178.952 228.179 178.102 228.276 177.635C228.413 176.968 229.021 176.146 229.632 175.899C230.422 175.579 231.425 175.661 232.322 175.744C235.063 175.998 237.564 175.428 239.752 173.722C241.782 172.144 243.942 171.718 246.518 172.223C247.992 172.512 249.637 172.007 251.197 171.794C253.33 171.501 255.466 171.206 257.579 170.8C259.08 170.511 260.547 170.044 262.374 169.562C261.797 168.503 261.522 167.929 261.186 167.4C260.598 166.478 260.073 165.351 261.014 164.608C261.797 163.989 263.315 163.381 263.999 163.738C265.929 164.749 267.441 164.491 269.069 163.281C269.478 162.978 270.161 162.892 270.697 162.937C272.246 163.068 272.868 162.012 273.407 160.51C271.964 160.922 270.515 161.328 269.076 161.751C266.283 162.573 266.008 162.476 264.49 160.032C262.35 160.372 260.561 162.542 258.056 161.28C257.819 161.16 257.17 161.892 256.7 162.208C255.563 162.968 254.484 163.883 253.244 164.409C252.512 164.718 250.809 164.584 250.754 164.357C250.197 162.071 248.174 163.023 246.622 162.342C246.622 161.469 246.622 160.513 246.622 159.293C242.431 159.723 240.531 156.247 236.952 153.981C238.532 153.204 239.367 152.503 240.26 152.41C243.19 152.1 246.137 151.585 249.016 153.005C249.912 153.445 251.145 153.269 252.22 153.256C253.467 153.238 254.718 153.132 255.954 152.974C257.126 152.822 258.283 152.554 259.685 152.293C258.238 150.192 256.428 151.169 254.989 150.736C253.643 150.33 252.378 149.642 250.62 148.879C250.476 148.913 249.823 149.12 249.153 149.23C246.934 149.594 246.288 149.137 245.965 146.892C245.619 144.499 243.788 143.027 242.517 141.212C242.204 140.765 241.4 140.535 241.294 140.091C241.071 139.163 240.861 138.039 241.191 137.21C241.644 136.079 242.795 136.55 243.568 136.997C245.299 137.998 246.869 137.726 248.731 137.152C251.348 136.347 254.103 136.705 256.823 137.272C258.208 137.561 259.719 137.43 261.144 137.258C262.591 137.083 264.044 136.726 265.421 136.241C266.407 135.894 267.276 135.213 268.708 134.381C266.816 132.951 265.4 131.905 264.013 130.829C262.498 129.657 260.763 128.705 260.701 126.35C260.684 125.738 259.76 125.146 259.296 124.596C255.284 125.562 255.284 125.562 253.643 122.908C249.974 123.407 249.974 123.407 248.59 120.003C245.636 120.732 244.368 118.483 243.025 116.537C242.036 115.104 242.682 113.732 244.447 113.643C245.907 113.567 247.023 113.491 247.855 112.016C248.549 110.782 249.929 110.658 251.217 111.195C252.688 111.807 254.117 112.522 255.566 113.192C257.222 110.634 254.725 109.142 253.959 107.172C255.394 105.567 256.806 106.223 258.304 106.89C261.193 108.18 264.081 110.232 267.042 110.366C269.879 110.493 272.535 111.047 275.269 111.477C275.76 111.552 276.444 111.26 276.842 110.913C279.381 108.706 282.328 107.327 285.512 106.048C284.45 106.137 283.375 106.141 282.331 106.333C280.937 106.591 279.563 108.114 278.195 106.278C278.151 106.22 277.962 106.227 277.862 106.261C276.464 106.767 275.046 107.224 273.685 107.812C272.25 108.431 271.291 106.344 269.612 107.358C268.612 107.96 267.018 107.574 265.476 107.643C265.476 106.323 265.476 105.374 265.476 104.759C262.642 102.827 259.032 103.243 256.466 100.953C253.749 101.293 253.371 97.6248 251.039 97.8139C250.726 96.5005 250.462 95.3832 250.108 93.8842C251.015 93.7948 251.959 93.6573 252.911 93.6195C254.618 93.5507 256.483 94.3724 257.706 92.1824C257.95 91.7457 259.609 91.952 260.581 92.0964C262.278 92.3474 263.824 92.76 265.418 91.3951C266.001 90.8965 267.623 91.1716 268.54 91.5945C270.673 92.5777 272.607 93.6367 274.764 91.6013C275.245 91.1475 276.299 91.0616 277.041 91.1613C279.26 91.4604 280.974 90.5768 282.778 89.4182C284.172 88.5209 285.869 87.9742 287.504 87.6063C289.359 87.1903 290.307 86.2689 290.369 83.9723C284.055 84.4537 278.23 86.5612 272.14 88.0877C271.971 87.4619 271.806 86.8328 271.638 86.2105C270.419 86.2655 269.199 86.3239 267.88 86.3824C267.77 85.5366 267.688 84.904 267.588 84.1614C266.032 84.103 264.353 84.4399 263.621 82.3565C263.473 81.937 261.976 81.9989 261.031 81.8236C260.866 81.1875 260.705 80.5687 260.533 79.912C259.228 79.9705 257.967 80.1114 256.72 80.053C255.958 80.0186 254.731 79.8879 254.532 79.4376C253.567 77.2475 251.654 76.804 249.682 76.3261C249.236 76.2196 248.83 75.9617 248.174 75.6695C251.286 72.5099 254.309 74.6449 257.023 74.2874C259.266 71.1553 259.922 70.9215 263.491 72.6474C265.122 73.4347 266.606 73.8026 268.399 73.1769C269.43 72.8159 270.738 72.6578 271.748 72.9706C273.96 73.6548 276.121 73.7304 278.426 73.7098C282.472 73.672 286.522 74.1946 290.888 74.504C291.028 73.4657 291.155 72.5271 291.365 70.9697C288.72 71.8017 286.542 72.4858 284.066 73.2594C283.966 72.0974 283.908 71.3788 283.842 70.6087C282.06 70.6087 280.27 70.6087 278.127 70.6087C278.299 69.3882 278.429 68.4462 278.573 67.4319C277.086 66.6377 273.898 68.0164 274.537 64.5062C273.053 64.1177 271.655 63.7498 269.814 63.265C270.529 62.0927 271.023 61.2813 271.604 60.3289C270.02 59.1875 266.287 59.3525 268.344 55.7529C267.461 54.7112 266.675 53.7795 266.149 53.1606C266.723 51.1769 267.166 49.6435 267.671 47.9004C269.618 46.9653 271.398 47.9039 273.246 48.9044C274.503 49.5851 275.928 49.953 277.258 50.5134C278.051 50.8503 279.126 51.0875 279.514 51.7167C280.552 53.4047 282.087 53.9136 283.836 54.0992C285.848 54.3158 287.116 55.2716 287.944 57.1935C288.425 58.3074 289.565 59.136 290.699 59.8683C290.915 57.4788 289.737 55.8148 287.958 54.7868C286.316 53.8379 284.375 53.4185 282.609 52.6656C281.84 52.339 281.18 51.7579 280.469 51.2938C280.93 50.6062 281.39 49.9186 281.912 49.1381C280.799 48.1892 279.487 47.0753 277.931 45.7517C280.912 43.6029 282.122 46.8003 284.282 46.9C284.852 46.1024 285.515 45.1775 286.432 43.8951C287.758 46.5837 288.878 48.8528 289.994 51.1219C290.252 51.0325 290.506 50.9431 290.764 50.8503C290.235 48.3302 289.885 45.7551 289.125 43.3107C288.438 41.0966 286.989 40.8422 285.203 42.3308C284.176 43.1869 283.197 44.098 281.624 45.4938C281.318 43.6889 281.125 42.5509 280.923 41.3647C280.878 41.3579 280.645 41.2307 280.49 41.296C279.477 41.7017 278.378 42.7846 277.436 41.4816C276.385 40.0239 277.862 39.2882 278.683 38.4252C278.989 38.1055 279.291 37.7857 279.669 37.3904C277.979 34.6503 273.967 32.9519 275.873 28.424C279.023 28.8193 280.634 31.642 283.365 32.6906C283.801 31.5388 284.248 30.3596 284.88 28.699C287.466 31.0575 287.449 34.4405 289.757 36.4621C290.046 34.0383 289.503 31.8689 288.335 29.8886C287.116 27.8223 285.708 25.8661 284.444 23.8239C283.64 22.5243 282.486 21.2282 283.932 19.1413C285.831 20.6127 287.624 22.0017 289.998 23.8376C289.878 21.9261 289.764 20.8328 289.751 19.736C289.737 18.5946 289.672 17.4222 289.902 16.3186C290.166 15.0397 290.925 13.7367 292.389 14.0461C293.058 14.1871 293.766 15.4763 293.941 16.3496C294.319 18.2061 294.36 20.128 294.556 22.2046C296.809 21.1628 297.27 18.3849 299.866 18.072C300.327 19.5882 299.454 20.6334 298.767 21.5376C296.332 24.7384 295.044 28.2899 295.016 32.5737C297.211 31.4426 296.94 28.8365 298.565 26.9387C299.248 28.3208 299.753 29.3419 300.182 30.2083C302.604 28.6371 304.926 27.0763 307.32 25.6357C307.664 25.4294 308.361 25.8111 308.948 25.9314C309.227 29.2422 305.888 29.7442 304.61 31.9961C306.63 33.0688 309.649 31.3325 310.948 34.1345C310.594 35.9326 309.264 36.2558 307.842 36.2317C306.592 36.2111 305.338 36.022 304.102 35.8123C301.268 35.331 299.097 36.414 297.362 38.9272C298.554 38.7759 299.743 38.6109 300.938 38.4768C303.181 38.2224 305.304 38.5731 307.045 40.0961C307.482 40.4777 307.932 41.5745 307.743 41.7911C307.303 42.293 306.462 42.7365 305.816 42.6953C304.737 42.6265 303.683 42.1589 302.343 41.7842C302.343 43.4276 302.343 44.7546 302.343 46.2089C299.001 46.79 298.362 43.345 296.195 42.458C294.353 45.1844 294.508 51.6101 296.596 58.0461C300.021 56.4165 302.738 54.1336 304.363 50.6749C304.947 49.4338 305.39 48.1205 306.018 46.9034C306.403 46.1608 307.015 45.5351 307.815 44.4762C308.347 45.7689 308.667 46.5493 309.024 47.4226C309.306 47.3469 309.69 47.3572 309.903 47.1681C311.964 45.3529 313.953 43.4516 316.059 41.6914C316.959 40.9384 318.085 40.4571 319.693 39.5082C319.703 44.0842 315.835 45.7035 314.534 49.3032C316.777 48.5365 318.618 47.9073 320.62 47.2232C320.885 49.1828 319.672 50.0114 318.841 51.0084C318.048 51.9608 317.199 52.865 316.255 53.9239C317.78 54.5462 319.61 54.7215 320.174 55.6601C320.971 56.9872 320.837 58.8747 321.228 61.3157C319.332 60.5249 318.161 60.0367 316.804 59.4694C316.206 60.3152 315.581 61.2057 314.716 62.433C313.733 61.6354 312.747 61.0681 312.081 60.243C310.827 58.689 309.58 58.689 307.877 59.5141C305.311 60.7587 302.621 61.7557 299.97 62.8215C298.125 63.5641 297.551 64.7881 298.431 66.71C302.106 64.7709 305.778 62.8353 309.763 60.7381C310.329 61.5529 311.133 62.2818 311.404 63.1756C312.081 65.4207 313.606 65.8642 315.64 65.6442C316.316 65.572 317.096 65.4207 317.67 65.6717C318.309 65.9501 319.171 66.6343 319.188 67.1672C319.205 67.7207 318.429 68.508 317.814 68.814C317.141 69.1475 316.244 69.0031 315.458 69.151C314.255 69.3744 313.063 69.6701 311.676 69.9795C311.947 71.3204 312.157 72.3655 312.459 73.8645C311.215 73.3935 310.333 73.06 309.354 72.6887C308.213 73.4623 307.025 74.2702 305.52 75.2947C305.208 74.0845 304.998 73.2594 304.748 72.2899C302.604 71.3616 300.718 72.173 298.712 73.1494C301.168 74.394 303.401 75.5216 306.64 77.1616C308.045 77.2647 310.257 73.5482 313.098 76.6493C314.334 75.4666 315.413 74.4662 316.454 73.4348C318.288 71.6195 319.119 71.8017 320.033 74.2668C320.263 74.889 320.428 75.5388 320.559 75.9686C324.261 77.2682 327.717 78.4784 331.142 79.6817C331.313 81.8201 329.118 81.301 328.428 82.3599C329.29 83.0372 330.145 83.7145 331.032 84.4124C330.005 86.3686 328.672 86.3686 327.123 85.7842C325.141 85.0381 323.145 84.3333 320.435 83.3501C321.373 84.8628 321.871 85.6604 322.376 86.4787C320.926 88.2939 319.566 87.1594 318.305 86.6162C316.313 85.7601 314.386 84.7528 312.418 83.8451C312.036 83.6698 311.576 83.6698 310.865 83.5357C311.346 84.5087 311.71 85.2444 312.177 86.1933C308.516 88.1289 306.764 84.8353 304.229 83.4841C303.851 84.6703 303.528 85.6776 303.167 86.8087C300.725 86.4512 299.705 84.5981 298.122 83.1506C298.18 84.2508 298.073 85.3922 298.328 86.4477C298.829 88.5174 300.038 89.2119 302.168 88.8268C302.951 88.6859 303.703 88.3696 304.486 88.2149C306.084 87.8986 307.736 87.5101 308.488 89.6382C308.557 89.8307 308.715 90.0302 308.883 90.1436C310.192 91.0169 311.662 92.4918 312.054 93.4579C315.818 93.4751 318.322 89.9442 322.173 89.5626C322.372 90.3671 322.547 91.0788 322.733 91.8317C323.739 91.6117 324.698 91.3985 325.907 91.1338C326.147 92.5193 326.353 93.6985 326.57 94.9534C328.517 95.531 330.118 94.7506 331.849 94.0973C334.504 93.0969 337.263 92.3336 340.024 91.677C341.144 91.4122 342.391 91.6942 343.562 91.7251C343.947 94.3965 341.415 94.5959 340.828 96.1464C341.721 96.4902 342.594 96.8272 343.628 97.226C342.82 98.9312 341.412 99.0825 340.127 99.3747C338.702 99.7014 337.531 100.114 336.345 101.273C335.291 102.304 333.216 102.335 331.567 102.703C330.613 102.916 329.524 102.596 329.249 104.126C329.18 104.508 327.947 104.827 327.222 104.903C325.999 105.03 324.753 104.937 323.392 104.937C323.585 105.632 323.743 106.206 324.079 107.416C321.902 106.907 320.167 106.557 318.46 106.086C317.144 105.721 315.976 105.498 314.503 105.828C312.94 106.179 311.102 105.773 309.491 105.312C306.183 104.37 303.102 102.909 300.547 100.416C301.048 102.369 302.511 103.562 304.019 104.656C308.608 107.977 313.665 110.301 319.119 111.865C321.232 112.47 323.2 113.577 326.171 114.86C328.95 114.705 332.639 111.325 336.655 114.014C338.382 113.56 340.145 112.621 341.814 112.773C343.981 112.969 343.219 115.558 344.191 117.27C346.788 115.953 349.319 114.667 351.851 113.385C352.029 113.653 352.208 113.925 352.383 114.193C349.951 116.283 347.921 118.855 345.005 120.347C344.091 120.814 342.783 120.587 341.659 120.56C340.807 120.539 339.962 120.326 339.114 120.199C338.98 120.402 338.843 120.608 338.709 120.811C339.873 121.591 341.038 122.372 342.247 123.183C339.835 126.198 337.115 125.022 334.7 125.463C334.219 126.209 333.872 127.374 333.134 127.742C332.189 128.21 330.922 128.137 329.798 128.096C328.782 128.058 327.775 127.745 326.765 127.549C325.879 127.374 324.993 127.192 323.76 126.944C324.072 128.144 324.334 129.138 324.588 130.111C322.726 130.778 322.726 130.778 314.963 127.721C314.963 128.292 314.963 128.822 314.963 129.544C311.82 129.64 309.951 126.645 307.09 126.109C306.225 128.505 306.273 129.196 308.2 130.221C310.202 131.287 312.387 132.029 314.53 132.803C316.141 133.384 317.924 133.563 319.435 134.316C322.743 135.966 326.013 135.856 329.431 134.831C331.396 134.243 333.419 133.752 335.449 133.518C338.485 133.171 339.045 133.666 340.086 136.846C341.652 136.193 343.184 135.478 344.771 134.91C347.952 133.772 348.694 134.216 349.481 137.705C350.666 137.461 351.851 137.09 353.053 136.994C355.214 136.818 356.031 137.919 355.378 139.933C354.99 141.14 353.836 142.13 354.777 143.725C354.963 144.038 353.427 145.682 352.431 146.307C350.717 147.38 349.014 148.246 347.64 149.928C346.674 151.11 344.682 151.502 343.095 152.1C342.271 152.41 341.33 152.396 340.491 152.52C340.004 156.116 339.482 156.536 335.909 156.553C333.848 156.563 331.842 155.889 329.812 157.625C328.895 158.413 326.487 157.894 324.938 157.392C323.124 156.804 321.507 155.597 319.817 154.645C318.669 153.998 317.543 153.318 315.849 152.327C316.354 154.655 316.516 156.381 317.141 157.925C317.519 158.86 318.484 159.75 319.408 160.228C321.022 161.06 322.832 161.507 324.519 162.212C327.068 163.278 329.606 163.336 332.227 162.504C334.607 161.748 336.978 160.778 339.567 161.641C339.866 161.741 340.248 161.624 340.584 161.576C344.473 161.026 344.473 161.026 345.16 165.045C346.774 164.45 348.337 163.876 349.896 163.295C352.411 162.356 354.843 161.878 356.443 164.594C359.064 164.467 360.634 161.507 363.533 162.772C363.828 165.471 362.458 167.86 360.864 169.449C359.222 171.085 356.519 171.649 354.059 172.784C354.217 172.973 354.671 173.372 354.939 173.87C355.437 174.792 354.997 175.507 354.083 175.672C353.087 175.85 352.04 175.747 351.016 175.758C348.309 175.789 345.606 175.816 342.741 176.49C343.301 176.937 343.851 177.391 344.418 177.824C345.4 178.57 346.939 179.182 346.492 180.64C345.967 182.362 344.211 181.719 342.917 181.764C342.14 181.791 341.36 181.616 340.45 181.52C340.704 182.482 340.924 183.301 341.199 184.339C337.592 184.638 334.528 183.139 331.035 182.692C331.427 184.219 332.471 184.714 333.563 185.243C338.527 187.646 343.779 187.598 349.031 186.887C352.074 186.474 355.042 185.508 358.061 184.868C359.679 184.528 361.359 183.926 363.135 185.126C362.135 187.842 359.068 187.409 357.381 189.169C358.676 189.988 359.885 190.754 361.335 191.672C358.752 193.914 356.028 191.48 353.895 192.47C353.458 193.873 353.046 195.2 352.603 196.623C352.785 196.757 353.204 197.06 353.853 197.534C351.377 199.205 348.904 198.222 346.64 198.964C348.801 198.964 350.975 199.098 353.122 198.927C355.275 198.755 357.426 198.359 359.545 197.909C361.778 197.434 364 196.864 366.178 196.176C368.194 195.54 370.145 194.694 372.337 193.862C372.546 196.915 369.675 197.789 368.503 199.875C369.891 200.395 371.117 200.852 372.498 201.364C371.468 203.774 368.981 203.509 367.232 204.826C367.985 208.006 364.804 207.669 363.066 209.01C363.107 209.54 363.152 210.159 363.2 210.808C362.825 210.912 362.509 211.07 362.19 211.077C360.263 211.111 358.25 210.066 356.495 212.012C356.114 212.435 354.547 211.909 353.568 211.651C351.497 211.104 349.453 210.447 347.093 209.743C347.248 211.458 348.23 211.816 349.096 212.204C351.287 213.188 353.534 214.054 355.701 215.089C358.679 216.509 361.62 216.533 364.67 215.312C366.631 214.525 368.672 213.934 371.001 213.143C371.001 214.48 371.001 215.219 371.001 215.711C375.329 218.08 379.179 215.522 383.195 214.233C383.658 217.334 381.467 217.715 380.151 218.778C380.807 221.178 380.807 221.178 374.381 223.44C375.105 223.9 375.737 224.303 377.125 225.179C374.26 225.771 372.124 226.211 369.712 226.706C370.901 227.569 371.966 228.346 373.367 229.367C371.413 230.498 369.998 229.893 368.586 229.724C367.59 229.604 366.539 229.463 365.577 229.652C363.502 230.061 361.469 230.677 359.305 231.237C360.16 232.382 361.62 232.578 363.049 232.698C366.353 232.973 369.671 233.108 372.972 233.407C375.504 233.637 375.593 233.812 376.046 236.999C377.839 237.065 379.739 237.288 381.614 237.171C384.579 236.986 387.526 236.521 390.49 236.267C392.022 236.133 393.664 235.782 395.351 237.546C392.297 238.457 389.556 239.272 386.815 240.09C386.815 240.296 386.818 240.506 386.818 240.712C389.061 241.483 391.304 242.249 393.946 243.153C391.627 245.856 388.725 245.151 386.241 246.09C387.131 247.52 386.664 248.451 385.046 248.696C382.343 249.108 379.633 249.517 376.912 249.799C375.463 249.947 373.989 249.827 372.223 249.827C372.948 250.862 373.474 251.614 374.24 252.704C369.609 254.269 365.237 254.286 360.555 253.705C360.266 255.795 358.776 256.28 356.904 256.05C352.596 255.517 348.292 254.956 343.985 254.41C342.752 254.251 341.518 254.1 340.079 254.434C340.766 254.908 341.398 255.506 342.151 255.833C349.553 259.051 357.103 261.609 365.371 260.87C367.191 260.708 369.029 260.715 370.86 260.653C372.265 260.605 373.515 260.571 373.996 262.465C374.133 263.005 375.71 263.531 376.582 263.465C379.54 263.252 382.466 262.692 385.42 262.417C387.141 262.259 388.903 261.213 391.112 262.537C389.735 263.833 388.55 264.951 387.282 266.144C390.085 267.56 393.448 265.944 396 268.32C394.155 271.177 391.057 270.637 388.467 271.775C389.079 272.642 389.673 273.487 390.329 274.416C387.883 277.273 384.981 275.808 382.023 275.787C381.879 277.489 380.392 277.42 379.018 277.434C375.59 277.468 372.162 277.444 368.431 277.444C368.929 278.18 369.311 278.744 369.788 279.449C366.865 281.567 363.99 279.115 361.077 279.569C361.077 280.917 361.077 282.113 361.077 283.361C358.683 284.523 356.807 282.791 354.746 282.529C353.939 285.201 353.269 285.74 350.71 284.981C348.419 284.3 346.245 283.234 344.019 282.337C342.429 281.697 340.842 281.054 339.227 280.405C338.856 283.678 339.75 285.273 342.662 285.902C345.627 286.541 348.354 287.569 350.772 289.419C351.222 289.763 351.727 290.124 352.263 290.255C359.171 291.919 366.082 293.758 373.116 290.812C375.438 289.839 377.743 288.828 380.096 287.934C381.312 287.473 382.607 287.229 384.63 286.682C383.971 288.536 383.583 289.636 383.095 291.004C386.626 291.386 390.319 289.581 393.829 291.802C392.455 294.576 389.357 293.895 387.244 295.549C389.666 295.752 391.885 295.934 394.104 296.12C394.162 296.391 394.221 296.663 394.276 296.935C393.321 297.598 392.366 298.258 391.394 298.936C391.93 299.448 392.462 299.957 393.214 300.675C391.009 304.117 387.117 303.924 383.902 305.32C384.891 306.228 385.781 307.046 387.004 308.174C386.173 308.858 385.606 309.545 384.878 309.875C383.37 310.563 381.762 311.027 380.227 311.649C378.657 312.289 377.118 313.007 375.387 313.774C375.864 314.355 376.321 314.905 376.833 315.528C376.548 315.73 376.294 316.06 376.026 316.074C373.676 316.184 371.327 316.239 368.778 316.318C369.39 318.574 370.691 319.103 372.419 319.306C376.146 319.739 379.856 320.303 383.569 320.843C384.009 320.908 384.551 321.035 384.826 321.334C386.403 323.036 388.275 323.854 390.556 323.163C390.903 326.02 390.686 326.687 388.721 326.942C387.203 327.141 385.561 326.877 384.046 326.516C382.435 326.13 380.91 325.391 378.925 324.649C379.574 326.271 380.021 327.385 380.639 328.936C379.327 329.324 378.207 329.658 376.922 330.036C376.788 330.61 376.61 331.37 376.414 332.202C373.924 333.251 371.742 331.875 369.273 331.312C367.366 333.925 364.917 332.666 362.568 331.927C357.147 336.885 355.21 336.575 348.584 331.288C346.379 331.937 344.404 332.518 341.807 333.285C340.883 335.551 338.554 335.626 335.916 334.777C334.539 334.334 333.46 334.172 331.938 335.162C330.808 335.898 328.644 335.193 326.982 334.901C325.618 334.66 324.533 334.206 323.348 335.637C322.31 336.888 320.741 336.386 319.775 335.19C318.81 333.99 317.738 333.701 316.237 333.629C315.004 333.57 313.671 332.866 312.627 332.109C310.707 330.724 308.966 329.091 306.644 327.131C306.444 331.373 307.53 334.688 308.55 337.947C309.594 341.289 311.051 344.5 312.404 347.972C303.669 349.516 295.006 348.856 285.931 348.88C286.357 347.745 286.587 346.917 286.965 346.164C290.331 339.398 291.966 332.171 292.567 324.697C292.708 322.947 292.313 321.152 292.128 318.928C290.764 319.739 289.929 320.234 288.971 320.805C288.311 320.073 287.727 319.419 286.913 318.512C286.343 320.413 285.842 322.087 285.254 324.054C282.953 322.971 282.08 324.728 280.978 326.093C280.129 327.141 279.247 328.155 277.811 326.251C276.942 329.153 274.596 330.363 272.524 331.745C271.882 332.171 270.604 331.642 269.371 331.525C268.684 332.353 267.819 333.416 266.932 334.457C266.094 335.441 265.314 336.345 263.745 335.527C263.226 335.255 262.264 335.63 261.591 335.912C260.574 336.335 259.633 336.933 258.07 337.775C258.07 335.509 258.07 333.842 258.07 332.03C253.718 331.941 253.055 336.159 249.874 337.834C249.345 336.276 248.861 334.856 248.308 333.227C246.975 334.334 245.673 335.417 244.403 336.472C243.53 336.187 242.74 335.695 241.957 335.709C238.728 335.767 238.728 335.822 237.612 332.848C236.014 332.848 234.359 332.848 232.346 332.848C232.82 331.466 233.163 330.456 233.579 329.238C231.116 329.871 228.774 330.476 226.428 331.078C226.297 330.861 226.17 330.648 226.039 330.431C226.634 329.428 227.228 328.424 227.674 327.667C226.641 326.753 225.009 326.003 224.896 325.068C224.689 323.356 226.603 322.857 227.925 322.273C229.474 321.585 231.109 321.09 233.318 320.289C230.969 319.78 229.512 320.647 228.018 321.18C226.242 321.812 224.858 321.695 224.466 319.385C222.223 320.293 220.969 322.703 218.215 322.62C218.012 321.867 217.82 321.156 217.627 320.444C216.195 320.857 214.804 321.255 213.076 321.754C213.076 320.674 213.076 319.959 213.076 319.007C211.695 318.436 209.644 317.969 211.568 315.225C209.627 315.614 208.178 315.899 206 316.336C207.896 313.379 210.651 313.09 212.76 311.412C211.826 310.752 210.981 310.157 210.088 309.532C214.017 306.345 215.924 305.169 219.338 304.474C220.482 304.24 221.845 304.588 222.996 304.987C224.799 305.612 226.414 305.605 228.303 305.072C231.315 304.227 234.458 303.742 237.581 303.426C240.926 303.089 241.792 302.15 241.449 298.224C239.102 299.039 238.409 302.422 235.204 302.178C235.204 301.012 235.204 299.933 235.204 298.581C232.724 299.747 231.425 302.669 228.011 302.9C228.197 301.353 228.361 299.981 228.588 298.107C227.314 298.661 226.249 299.118 225.188 299.582C224.349 299.946 223.542 300.414 222.67 300.665C220.592 301.256 219.966 300.734 219.747 298.386C219.716 298.059 219.637 297.739 219.568 297.361C217.871 297.612 216.236 297.856 214.488 298.114C214.835 296.12 214.835 296.12 217.727 294.057C214.027 293.779 210.785 293.531 207.151 293.256C207.776 289.704 210.805 289.962 212.588 288.56C212.186 287.824 211.778 287.081 211.352 286.304C211.664 285.96 211.846 285.562 212.104 285.507C213.21 285.263 214.337 284.97 215.456 284.967C221.172 284.95 226.902 284.781 232.525 286.205C234.311 286.655 235.908 286.26 236.884 284.506C235.115 282.024 234.843 281.921 232.102 282.608C229.303 283.306 229.303 283.306 227.729 281.443C226.668 281.653 225.559 281.873 224.215 282.141C223.985 281.546 223.762 280.975 223.46 280.202C220.822 280.865 219.987 278.369 218.259 276.836C218.984 276.238 219.654 275.688 220.344 275.117C220.241 274.972 220.166 274.739 220.028 274.691C218.29 274.092 216.099 274.553 214.811 272.497C215.635 270.702 217.188 270.386 218.795 270.355C220.506 270.324 222.227 270.592 223.937 270.52C228.677 270.321 233.366 269.31 238.178 270.383C239.958 270.778 242.022 270.094 243.918 269.719C245.464 269.413 246.512 268.426 246.872 266.291C244.993 267.11 243.406 267.801 241.627 268.574C241.029 267.443 240.518 266.477 240.013 265.521C237.622 265.411 235.733 269.228 232.528 266.426C230.762 266.941 228.557 268.224 226.273 266.295C225.833 265.924 224.672 266.546 223.948 266.343C223.157 266.123 222.488 265.477 222.027 264.497C221.131 264.497 220.234 264.531 219.341 264.486C218.249 264.431 217.139 264.682 216.562 263.125C216.332 262.51 214.896 262.341 214.01 261.966C213.591 260.791 213.158 259.57 212.602 257.999C213 257.72 213.794 257.17 214.78 256.483Z" fill="#AEAEAE"/>
<path d="M146.343 472.196C129.936 472.196 115.767 468.787 103.835 461.969C91.9746 455.08 82.8482 445.349 76.4561 432.778C70.0641 420.136 66.8681 405.257 66.8681 388.141C66.8681 371.308 70.0641 356.536 76.4561 343.822C82.9192 331.038 91.9391 321.095 103.516 313.993C115.093 306.82 128.693 303.233 144.318 303.233C154.404 303.233 163.921 304.866 172.869 308.134C181.889 311.33 189.844 316.301 196.733 323.048C203.693 329.795 209.162 338.389 213.139 348.83C217.117 359.199 219.105 371.557 219.105 385.903V397.729H84.9789V371.734H182.138C182.067 364.348 180.469 357.778 177.344 352.026C174.219 346.202 169.851 341.621 164.24 338.283C158.7 334.945 152.237 333.276 144.851 333.276C136.968 333.276 130.043 335.193 124.077 339.028C118.111 342.793 113.459 347.764 110.121 353.943C106.854 360.051 105.185 366.763 105.114 374.078V396.77C105.114 406.287 106.854 414.455 110.334 421.273C113.814 428.02 118.679 433.205 124.929 436.827C131.179 440.378 138.494 442.153 146.875 442.153C152.486 442.153 157.564 441.372 162.11 439.81C166.655 438.176 170.597 435.797 173.935 432.672C177.273 429.547 179.794 425.676 181.499 421.06L217.507 425.108C215.235 434.625 210.902 442.935 204.51 450.037C198.189 457.068 190.093 462.537 180.22 466.443C170.348 470.278 159.056 472.196 146.343 472.196Z" fill="url(#paint0_linear_512_15)"/>
<path d="M462.343 472.196C445.936 472.196 431.767 468.787 419.835 461.969C407.975 455.08 398.848 445.349 392.456 432.778C386.064 420.136 382.868 405.257 382.868 388.141C382.868 371.308 386.064 356.536 392.456 343.822C398.919 331.038 407.939 321.095 419.516 313.993C431.093 306.82 444.693 303.233 460.318 303.233C470.404 303.233 479.921 304.866 488.869 308.134C497.889 311.33 505.844 316.301 512.733 323.048C519.693 329.795 525.162 338.389 529.139 348.83C533.117 359.199 535.105 371.557 535.105 385.903V397.729H400.979V371.734H498.138C498.067 364.348 496.469 357.778 493.344 352.026C490.219 346.202 485.851 341.621 480.24 338.283C474.7 334.945 468.237 333.276 460.851 333.276C452.968 333.276 446.043 335.193 440.077 339.028C434.111 342.793 429.459 347.764 426.121 353.943C422.854 360.051 421.185 366.763 421.114 374.078V396.77C421.114 406.287 422.854 414.455 426.334 421.273C429.814 428.02 434.679 433.205 440.929 436.827C447.179 440.378 454.494 442.153 462.875 442.153C468.486 442.153 473.564 441.372 478.11 439.81C482.655 438.176 486.597 435.797 489.935 432.672C493.273 429.547 495.794 425.676 497.499 421.06L533.507 425.108C531.235 434.625 526.902 442.935 520.51 450.037C514.189 457.068 506.093 462.537 496.22 466.443C486.348 470.278 475.056 472.196 462.343 472.196Z" fill="url(#paint1_linear_512_15)"/>
<path d="M149.324 170.616L114.167 174.452C113.173 170.901 111.433 167.562 108.947 164.438C106.532 161.312 103.265 158.791 99.146 156.874C95.0266 154.956 89.984 153.997 84.0181 153.997C75.9925 153.997 69.2454 155.737 63.7766 159.217C58.3789 162.697 55.7156 167.207 55.7866 172.747C55.7156 177.506 57.4556 181.376 61.0067 184.359C64.6289 187.342 70.5948 189.793 78.9045 191.71L106.816 197.676C122.299 201.014 133.805 206.305 141.333 213.55C148.933 220.794 152.768 230.276 152.839 241.994C152.768 252.293 149.75 261.384 143.784 269.267C137.889 277.08 129.686 283.187 119.174 287.591C108.663 291.994 96.5891 294.196 82.9528 294.196C62.9244 294.196 46.8022 290.006 34.5863 281.625C22.3704 273.173 15.0906 261.419 12.7468 246.362L50.3533 242.74C52.0579 250.126 55.68 255.702 61.2198 259.466C66.7596 263.23 73.9684 265.112 82.8462 265.112C92.0082 265.112 99.359 263.23 104.899 259.466C110.51 255.702 113.315 251.05 113.315 245.51C113.315 240.822 111.504 236.952 107.882 233.898C104.331 230.844 98.7908 228.5 91.2624 226.866L63.3505 221.007C47.6545 217.74 36.0423 212.236 28.5138 204.494C20.9854 196.682 17.2567 186.81 17.3278 174.878C17.2567 164.793 19.9911 156.057 25.5309 148.67C31.1417 141.213 38.9187 135.46 48.8619 131.412C58.8761 127.293 70.4173 125.233 83.4854 125.233C102.662 125.233 117.754 129.317 128.762 137.484C139.842 145.652 146.696 156.696 149.324 170.616Z" fill="url(#paint2_linear_512_15)"/>
<path d="M228.065 602.364V377.364H265.991V404.423H268.229C270.217 400.446 273.023 396.22 276.645 391.746C280.267 387.2 285.168 383.33 291.347 380.134C297.526 376.866 305.409 375.233 314.997 375.233C327.639 375.233 339.038 378.464 349.195 384.928C359.422 391.32 367.518 400.801 373.484 413.372C379.521 425.872 382.54 441.213 382.54 459.395C382.54 477.364 379.592 492.634 373.697 505.205C367.803 517.776 359.777 527.364 349.621 533.969C339.464 540.574 327.959 543.876 315.104 543.876C305.729 543.876 297.952 542.314 291.773 539.189C285.594 536.064 280.622 532.3 276.858 527.896C273.165 523.422 270.288 519.196 268.229 515.219H266.631V602.364H228.065ZM265.885 459.182C265.885 469.764 267.376 479.033 270.359 486.987C273.413 494.942 277.781 501.156 283.463 505.631C289.216 510.034 296.176 512.236 304.344 512.236C312.866 512.236 320.004 509.963 325.757 505.418C331.51 500.801 335.842 494.516 338.754 486.561C341.737 478.536 343.229 469.409 343.229 459.182C343.229 449.026 341.773 440.006 338.861 432.122C335.949 424.239 331.616 418.06 325.864 413.585C320.111 409.111 312.938 406.874 304.344 406.874C296.105 406.874 289.109 409.04 283.357 413.372C277.604 417.705 273.236 423.777 270.253 431.589C267.341 439.402 265.885 448.599 265.885 459.182Z" fill="url(#paint3_linear_512_15)"/>
<path d="M588.324 170.616L553.167 174.452C552.173 170.901 550.433 167.562 547.947 164.438C545.532 161.312 542.265 158.791 538.146 156.874C534.027 154.956 528.984 153.997 523.018 153.997C514.993 153.997 508.245 155.737 502.777 159.217C497.379 162.697 494.716 167.207 494.787 172.747C494.716 177.506 496.456 181.376 500.007 184.359C503.629 187.342 509.595 189.793 517.904 191.71L545.816 197.676C561.299 201.014 572.805 206.305 580.333 213.55C587.933 220.794 591.768 230.276 591.839 241.994C591.768 252.293 588.75 261.384 582.784 269.267C576.889 277.08 568.686 283.187 558.174 287.591C547.663 291.994 535.589 294.196 521.953 294.196C501.924 294.196 485.802 290.006 473.586 281.625C461.37 273.173 454.091 261.419 451.747 246.362L489.353 242.74C491.058 250.126 494.68 255.702 500.22 259.466C505.76 263.23 512.968 265.112 521.846 265.112C531.008 265.112 538.359 263.23 543.899 259.466C549.51 255.702 552.315 251.05 552.315 245.51C552.315 240.822 550.504 236.952 546.882 233.898C543.331 230.844 537.791 228.5 530.262 226.866L502.35 221.007C486.654 217.74 475.042 212.236 467.514 204.494C459.985 196.682 456.257 186.81 456.328 174.878C456.257 164.793 458.991 156.057 464.531 148.67C470.142 141.213 477.919 135.46 487.862 131.412C497.876 127.293 509.417 125.233 522.485 125.233C541.662 125.233 556.754 129.317 567.762 137.484C578.842 145.652 585.696 156.696 588.324 170.616Z" fill="url(#paint4_linear_512_15)"/>
<defs>
<linearGradient id="paint0_linear_512_15" x1="143" y1="178" x2="143" y2="541" gradientUnits="userSpaceOnUse">
<stop stop-color="#AEAEAE"/>
<stop offset="1" stop-color="#BED9B2"/>
</linearGradient>
<linearGradient id="paint1_linear_512_15" x1="459" y1="178" x2="459" y2="541" gradientUnits="userSpaceOnUse">
<stop stop-color="#AEAEAE"/>
<stop offset="1" stop-color="#BED9B2"/>
</linearGradient>
<linearGradient id="paint2_linear_512_15" x1="82.5" y1="0" x2="82.5" y2="363" gradientUnits="userSpaceOnUse">
<stop stop-color="#AEAEAE"/>
<stop offset="1" stop-color="#BED9B2"/>
</linearGradient>
<linearGradient id="paint3_linear_512_15" x1="302" y1="250" x2="302" y2="613" gradientUnits="userSpaceOnUse">
<stop stop-color="#AEAEAE"/>
<stop offset="1" stop-color="#BED9B2"/>
</linearGradient>
<linearGradient id="paint4_linear_512_15" x1="521.5" y1="0" x2="521.5" y2="363" gradientUnits="userSpaceOnUse">
<stop stop-color="#AEAEAE"/>
<stop offset="1" stop-color="#BED9B2"/>
</linearGradient>
</defs>
</svg>
