<svg width="927" height="306" viewBox="0 0 927 306" fill="none" xmlns="http://www.w3.org/2000/svg">
<path d="M262 159C262 219.199 213.199 268 153 268C92.801 268 44 219.199 44 159C44 98.801 92.801 50 153 50C213.199 50 262 98.801 262 159Z" fill="#D9D9D9"/>
<path d="M186.458 168.182C183.725 169.241 174.913 180.725 168.611 192.483L162.665 303.051L176.642 303.079L176.419 201.402C179.741 190.984 188.282 180.131 193.373 174.426L186.458 168.182Z" fill="#FFCC00" stroke="#AA8800" stroke-width="5.11768"/>
<path d="M119.033 169.743C121.765 170.802 129.686 180.725 135.987 192.483L140.365 303.036L128.04 303.036L128.179 201.401C124.857 190.983 116.762 182.136 111.672 176.431L119.033 169.743Z" fill="#FFCC00" stroke="#AA8800" stroke-width="5.11768"/>
<path d="M169.476 167.513H135.122V303.064H169.476V167.513Z" fill="#FFCC00" stroke="#AA8800" stroke-width="5.11768"/>
<path d="M55.0628 35.5298L127.118 164.169L144.519 158.15L175.081 160.156L251.375 37.3133C184.338 8.59424 119.127 7.16977 55.0628 35.5298Z" fill="#FFE680" stroke="#AA8800" stroke-width="5.11768"/>
<path d="M55.0628 35.5298L130.241 106.426L99.6791 116.013L55.0628 35.5298Z" fill="#FFCC00" stroke="#AA8800" stroke-width="5.11768"/>
<path d="M86.0711 26.389L86.9635 85.4695L119.31 113.115L127.341 76.5517L86.0711 26.389Z" fill="#FFCC00" stroke="#AA8800" stroke-width="5.11768"/>
<path d="M107.71 19.9236L105.256 90.3743L140.949 106.649L128.457 62.9521L107.71 19.9236Z" fill="#FFCC00" stroke="#AA8800" stroke-width="5.11768"/>
<path d="M95.2176 50.0213L94.5482 95.725L120.872 118.911L120.203 78.1123L95.2176 50.0213Z" fill="#D40000" stroke="#AA8800" stroke-width="5.11768"/>
<path d="M128.457 18.5859L114.849 97.2856L151.434 114.675V61.3915L128.457 18.5859Z" fill="#FFCC00" stroke="#AA8800" stroke-width="5.11768"/>
<path d="M179.096 18.5859L148.757 94.8333L174.188 118.02L195.158 89.7055L179.096 18.5859Z" fill="#FFCC00" stroke="#AA8800" stroke-width="5.11768"/>
<path d="M133.471 38.763L151.618 80.72L136.197 112.219L121.168 74.2794L133.471 38.763Z" fill="#D40000" stroke="#AA8800" stroke-width="5.11768"/>
<path d="M112.841 49.5753L152.773 123.37L123.549 129.167L107.041 108.879L113.956 100.407L112.841 49.5753Z" fill="#0000AA" stroke="#AA8800" stroke-width="5.11768"/>
<path d="M72.0168 66.2962L168.787 138.703L126.672 156.366L72.0168 66.2962Z" fill="#0000AA" stroke="#AA8800" stroke-width="5.11768"/>
<path d="M201.851 21.7071L164.373 90.5972L202.074 100.184L201.851 21.7071Z" fill="#FFCC00" stroke="#AA8800" stroke-width="5.11768"/>
<path d="M225.497 29.7332L153.888 103.974L223.489 79.0041L225.497 29.7332Z" fill="#FFCC00" stroke="#AA8800" stroke-width="5.11768"/>
<path d="M177.901 38.986L159.754 80.943L175.175 112.442L190.204 74.5024L177.901 38.986Z" fill="#D40000" stroke="#AA8800" stroke-width="5.11768"/>
<path d="M251.375 37.3133L175.973 104.643L202.743 115.567L251.375 37.3133Z" fill="#FFCC00" stroke="#AA8800" stroke-width="5.11768"/>
<path d="M217.193 49.9919L186.104 83.5169L190.151 118.35L216.963 87.5758L217.193 49.9919Z" fill="#D40000" stroke="#AA8800" stroke-width="5.11768"/>
<path d="M192.704 49.5753L152.773 123.37L181.996 129.167L198.504 108.879L191.589 100.407L192.704 49.5753Z" fill="#0000AA" stroke="#AA8800" stroke-width="5.11768"/>
<path d="M233.528 66.2962L136.758 138.703L178.873 156.366L233.528 66.2962Z" fill="#0000AA" stroke="#AA8800" stroke-width="5.11768"/>
<path d="M135.595 167.513L113.184 140.906C118.898 140.784 125.254 137.452 130.22 141.063L176.597 141.064C181.758 137.302 187.743 140.952 193.317 140.906L169.95 167.513" fill="#FFCC00"/>
<path d="M135.595 167.513L113.184 140.906C118.898 140.784 125.254 137.452 130.22 141.063L176.597 141.064C181.758 137.302 187.743 140.952 193.317 140.906L169.95 167.513" stroke="#AA8800" stroke-width="5.11768"/>
<path d="M151.434 17.2483C142.117 51.7298 130.56 84.7869 127.341 123.147C129.174 135.517 130.19 148.159 137.157 158.819C146.19 162.16 155.696 164.491 168.834 159.042C177.619 149.214 177.45 135.256 178.873 122.033C177.593 83.9599 164.279 50.6979 151.434 17.2483Z" fill="#FFCC00" stroke="#AA8800" stroke-width="5.11768"/>
<path d="M152.236 38.5094C145.569 63.1813 136.511 86.9917 134.208 114.439C134.476 121.948 133.952 129.457 138.234 136.967C142.775 133.342 154.452 127.244 168.787 138.703C171.256 127.094 170.642 124.145 171.711 114.745C170.795 87.5033 161.426 62.4429 152.236 38.5094Z" fill="#0000AA" stroke="#AA8800" stroke-width="3.66175"/>
<path d="M126.592 146.266C129.299 145.608 130.074 142.31 137.319 146.187C145.255 136.009 159.659 135.613 168.236 146.896C171.969 146.108 176.011 143.782 178.963 146.896V147.211" stroke="#AA8800" stroke-width="5.11768"/>
<path d="M20.3798 59.8503C36.1441 93.6595 49.1604 127.836 72.4073 160.645C82.1968 169.295 91.5168 178.711 104.256 182.544C113.721 179.142 122.883 174.615 129.711 161.431C130.114 147.675 120.585 136.638 112.822 125.118C86.175 95.5626 53.1531 77.9389 20.3798 59.8503Z" fill="#FFCC00" stroke="#AA8800" stroke-width="5.34443"/>
<path d="M35.325 76.2913C48.6869 102.852 59.9963 129.573 78.9469 155.698C86.6989 162.748 94.1312 170.363 103.891 173.858C104.37 163.003 108.89 157.04 122.122 158.829C121.818 148.324 114.155 139.46 107.802 130.304C86.4358 106.517 60.7968 91.5761 35.325 76.2913Z" fill="#0000AA" stroke="#AA8800" stroke-width="4.04903"/>
<path d="M74.8287 121.7C70.9272 125.149 67.5692 129.125 64.6589 133.536C68.6507 140.37 72.9351 147.175 77.7537 153.945C83.1084 139.52 93.7051 132.667 106.422 128.858C100.915 122.873 95.1234 117.447 89.1446 112.439C83.7562 114.927 78.992 118.022 74.8287 121.7Z" fill="#D40000" stroke="#AA8800" stroke-width="5.30562"/>
<path d="M286.047 59.8503C270.283 93.6595 257.267 127.836 234.02 160.645C224.23 169.295 214.91 178.711 202.171 182.544C192.706 179.142 183.544 174.615 176.716 161.431C176.313 147.675 185.843 136.638 193.605 125.118C220.252 95.5626 253.274 77.9389 286.047 59.8503Z" fill="#FFCC00" stroke="#AA8800" stroke-width="5.34443"/>
<path d="M271.102 76.2913C257.74 102.852 246.431 129.573 227.48 155.698C219.728 162.748 212.296 170.363 202.536 173.858C202.058 163.003 197.537 157.04 184.305 158.829C184.61 148.324 192.272 139.46 198.625 130.304C219.991 106.517 245.63 91.5762 271.102 76.2913Z" fill="#0000AA" stroke="#AA8800" stroke-width="4.04903"/>
<path d="M231.598 121.7C235.5 125.149 238.858 129.125 241.768 133.536C237.776 140.37 233.492 147.175 228.673 153.944C223.319 139.52 212.722 132.667 200.005 128.858C205.512 122.873 211.304 117.447 217.283 112.439C222.671 114.927 227.435 118.022 231.598 121.7Z" fill="#D40000" stroke="#AA8800" stroke-width="5.30562"/>
<path d="M168.77 167.513H135.754V171.415H168.77V167.513Z" fill="#D4AA00" stroke="#AA8800" stroke-width="2.04707"/>
<path d="M168.77 175.205H135.754V179.107H168.77V175.205Z" fill="#D4AA00" stroke="#AA8800" stroke-width="2.04707"/>
<path d="M168.77 184.457H135.754V188.359H168.77V184.457Z" fill="#D4AA00" stroke="#AA8800" stroke-width="2.04707"/>
<path d="M168.77 192.26H135.754V196.162H168.77V192.26Z" fill="#D4AA00" stroke="#AA8800" stroke-width="2.04707"/>
<path d="M175.343 201.911H129.181V205.796H175.343V201.911Z" fill="#D4AA00" stroke="#AA8800" stroke-width="2.41561"/>
<path d="M175.343 209.127H129.181V213.012H175.343V209.127Z" fill="#D4AA00" stroke="#AA8800" stroke-width="2.41561"/>
<path d="M175.343 215.899H129.181V219.784H175.343V215.899Z" fill="#D4AA00" stroke="#AA8800" stroke-width="2.41561"/>
<path d="M175.343 222.671H129.181V226.557H175.343V222.671Z" fill="#D4AA00" stroke="#AA8800" stroke-width="2.41561"/>
<path d="M175.343 229.11H129.181V232.996H175.343V229.11Z" fill="#D4AA00" stroke="#AA8800" stroke-width="2.41561"/>
<path d="M175.435 267.776H129.088V271.67H175.435V267.776Z" fill="#D4AA00" stroke="#AA8800" stroke-width="2.42295"/>
<path d="M175.435 276.036H129.088V279.929H175.435V276.036Z" fill="#D4AA00" stroke="#AA8800" stroke-width="2.42295"/>
<path d="M175.435 284.296H129.088V288.19H175.435V284.296Z" fill="#D4AA00" stroke="#AA8800" stroke-width="2.42295"/>
<path d="M175.435 292.556H129.088V296.45H175.435V292.556Z" fill="#D4AA00" stroke="#AA8800" stroke-width="2.42295"/>
<path d="M175.435 259.515H129.088V263.409H175.435V259.515Z" fill="#D4AA00" stroke="#AA8800" stroke-width="2.42295"/>
<path d="M393.764 141.68L364.468 144.876C363.639 141.917 362.189 139.135 360.117 136.531C358.105 133.927 355.383 131.826 351.95 130.228C348.517 128.63 344.315 127.831 339.343 127.831C332.655 127.831 327.033 129.281 322.475 132.181C317.977 135.081 315.758 138.839 315.817 143.456C315.758 147.421 317.208 150.647 320.167 153.133C323.186 155.619 328.157 157.661 335.082 159.259L358.342 164.23C371.244 167.012 380.832 171.421 387.106 177.458C393.439 183.495 396.635 191.396 396.694 201.162C396.635 209.744 394.119 217.32 389.148 223.889C384.235 230.4 377.4 235.49 368.64 239.159C359.881 242.829 349.819 244.663 338.455 244.663C321.765 244.663 308.33 241.171 298.15 234.188C287.97 227.144 281.904 217.349 279.95 204.802L311.289 201.783C312.71 207.939 315.728 212.585 320.345 215.722C324.961 218.858 330.968 220.427 338.367 220.427C346.002 220.427 352.127 218.858 356.744 215.722C361.419 212.585 363.757 208.708 363.757 204.092C363.757 200.185 362.248 196.96 359.23 194.415C356.27 191.87 351.654 189.917 345.38 188.555L322.12 183.673C309.04 180.95 299.363 176.363 293.09 169.912C286.816 163.402 283.709 155.175 283.768 145.232C283.709 136.827 285.987 129.547 290.604 123.392C295.28 117.178 301.76 112.384 310.046 109.01C318.392 105.577 328.009 103.861 338.899 103.861C354.879 103.861 367.456 107.264 376.63 114.07C385.863 120.877 391.575 130.08 393.764 141.68ZM466.064 244.663C452.392 244.663 440.584 241.822 430.641 236.141C420.757 230.4 413.152 222.291 407.825 211.815C402.498 201.28 399.835 188.881 399.835 174.617C399.835 160.59 402.498 148.28 407.825 137.685C413.211 127.032 420.728 118.746 430.375 112.827C440.022 106.85 451.356 103.861 464.377 103.861C472.781 103.861 480.712 105.222 488.17 107.945C495.686 110.608 502.315 114.751 508.056 120.374C513.856 125.996 518.413 133.158 521.728 141.858C525.042 150.499 526.699 160.797 526.699 172.753V182.607H414.927V160.945H495.893C495.834 154.79 494.502 149.315 491.898 144.521C489.294 139.668 485.654 135.851 480.979 133.069C476.362 130.287 470.976 128.896 464.821 128.896C458.251 128.896 452.481 130.494 447.509 133.69C442.537 136.827 438.661 140.97 435.879 146.119C433.157 151.209 431.766 156.802 431.706 162.898V181.808C431.706 189.739 433.157 196.545 436.057 202.227C438.957 207.85 443.011 212.17 448.219 215.189C453.428 218.148 459.524 219.628 466.508 219.628C471.183 219.628 475.415 218.977 479.203 217.675C482.991 216.313 486.276 214.331 489.057 211.727C491.839 209.122 493.94 205.897 495.361 202.05L525.368 205.423C523.474 213.354 519.863 220.279 514.537 226.197C509.269 232.057 502.522 236.614 494.295 239.869C486.068 243.065 476.658 244.663 466.064 244.663ZM536.388 293.136V105.636H567.993V128.186H569.857C571.514 124.872 573.852 121.35 576.871 117.621C579.889 113.834 583.973 110.608 589.122 107.945C594.271 105.222 600.841 103.861 608.831 103.861C619.366 103.861 628.865 106.554 637.329 111.94C645.852 117.266 652.599 125.168 657.57 135.643C662.601 146.06 665.116 158.844 665.116 173.996C665.116 188.97 662.66 201.695 657.748 212.17C652.835 222.646 646.147 230.636 637.684 236.141C629.22 241.645 619.632 244.397 608.92 244.397C601.107 244.397 594.626 243.095 589.477 240.491C584.328 237.887 580.185 234.75 577.048 231.08C573.971 227.352 571.574 223.83 569.857 220.516H568.526V293.136H536.388ZM567.904 173.818C567.904 182.637 569.147 190.361 571.633 196.989C574.178 203.618 577.818 208.797 582.553 212.526C587.347 216.195 593.147 218.03 599.953 218.03C607.055 218.03 613.004 216.136 617.798 212.348C622.592 208.501 626.202 203.263 628.629 196.634C631.114 189.946 632.357 182.341 632.357 173.818C632.357 165.355 631.144 157.838 628.717 151.268C626.291 144.699 622.68 139.55 617.886 135.821C613.092 132.092 607.115 130.228 599.953 130.228C593.088 130.228 587.258 132.033 582.464 135.643C577.67 139.254 574.03 144.314 571.544 150.825C569.117 157.335 567.904 165 567.904 173.818ZM735.507 244.663C721.835 244.663 710.028 241.822 700.085 236.141C690.201 230.4 682.595 222.291 677.268 211.815C671.942 201.28 669.278 188.881 669.278 174.617C669.278 160.59 671.942 148.28 677.268 137.685C682.654 127.032 690.171 118.746 699.818 112.827C709.465 106.85 720.799 103.861 733.82 103.861C742.225 103.861 750.156 105.222 757.613 107.945C765.13 110.608 771.758 114.751 777.499 120.374C783.299 125.996 787.857 133.158 791.171 141.858C794.486 150.499 796.143 160.797 796.143 172.753V182.607H684.371V160.945H765.337C765.277 154.79 763.946 149.315 761.342 144.521C758.737 139.668 755.098 135.851 750.422 133.069C745.805 130.287 740.42 128.896 734.264 128.896C727.695 128.896 721.924 130.494 716.952 133.69C711.981 136.827 708.104 140.97 705.322 146.119C702.6 151.209 701.209 156.802 701.15 162.898V181.808C701.15 189.739 702.6 196.545 705.5 202.227C708.4 207.85 712.454 212.17 717.663 215.189C722.871 218.148 728.967 219.628 735.951 219.628C740.627 219.628 744.858 218.977 748.646 217.675C752.434 216.313 755.719 214.331 758.501 211.727C761.282 209.122 763.384 205.897 764.804 202.05L794.811 205.423C792.917 213.354 789.307 220.279 783.98 226.197C778.713 232.057 771.965 236.614 763.739 239.869C755.512 243.065 746.101 244.663 735.507 244.663ZM913.608 141.68L884.311 144.876C883.483 141.917 882.033 139.135 879.961 136.531C877.949 133.927 875.226 131.826 871.794 130.228C868.361 128.63 864.159 127.831 859.187 127.831C852.499 127.831 846.876 129.281 842.319 132.181C837.821 135.081 835.602 138.839 835.661 143.456C835.602 147.421 837.052 150.647 840.011 153.133C843.029 155.619 848.001 157.661 854.926 159.259L878.186 164.23C891.088 167.012 900.676 171.421 906.95 177.458C913.283 183.495 916.479 191.396 916.538 201.162C916.479 209.744 913.963 217.32 908.992 223.889C904.079 230.4 897.243 235.49 888.484 239.159C879.724 242.829 869.663 244.663 858.299 244.663C841.609 244.663 828.174 241.171 817.994 234.188C807.814 227.144 801.747 217.349 799.794 204.802L831.133 201.783C832.553 207.939 835.572 212.585 840.188 215.722C844.805 218.858 850.812 220.427 858.21 220.427C865.845 220.427 871.971 218.858 876.588 215.722C881.263 212.585 883.601 208.708 883.601 204.092C883.601 200.185 882.092 196.96 879.073 194.415C876.114 191.87 871.498 189.917 865.224 188.555L841.964 183.673C828.884 180.95 819.207 176.363 812.933 169.912C806.66 163.402 803.552 155.175 803.612 145.232C803.552 136.827 805.831 129.547 810.448 123.392C815.123 117.178 821.604 112.384 829.89 109.01C838.235 105.577 847.853 103.861 858.743 103.861C874.723 103.861 887.3 107.264 896.474 114.07C905.707 120.877 911.418 130.08 913.608 141.68Z" fill="#AEAEAE"/>
</svg>
