<svg width="786" height="365" viewBox="0 0 786 365" fill="none" xmlns="http://www.w3.org/2000/svg">
<path d="M149.851 170.616L114.695 174.452C113.701 170.901 111.961 167.562 109.475 164.438C107.06 161.312 103.793 158.791 99.6739 156.874C95.5546 154.956 90.512 153.997 84.5461 153.997C76.5205 153.997 69.7733 155.737 64.3046 159.217C58.9069 162.697 56.2435 167.207 56.3145 172.747C56.2435 177.506 57.9836 181.376 61.5347 184.359C65.1569 187.342 71.1228 189.793 79.4324 191.71L107.344 197.676C122.827 201.014 134.333 206.305 141.861 213.55C149.461 220.794 153.296 230.276 153.367 241.994C153.296 252.293 150.278 261.384 144.312 269.267C138.417 277.08 130.214 283.187 119.702 287.591C109.191 291.994 97.1171 294.196 83.4807 294.196C63.4523 294.196 47.3302 290.006 35.1143 281.625C22.8983 273.173 15.6185 261.419 13.2748 246.362L50.8813 242.74C52.5858 250.126 56.208 255.702 61.7478 259.466C67.2876 263.23 74.4964 265.112 83.3742 265.112C92.5361 265.112 99.887 263.23 105.427 259.466C111.038 255.702 113.843 251.05 113.843 245.51C113.843 240.822 112.032 236.952 108.41 233.898C104.859 230.844 99.3188 228.5 91.7904 226.866L63.8785 221.007C48.1824 217.74 36.5702 212.236 29.0418 204.494C21.5134 196.682 17.7847 186.81 17.8557 174.878C17.7847 164.793 20.5191 156.057 26.0589 148.67C31.6697 141.213 39.4466 135.46 49.3898 131.412C59.404 127.293 70.9452 125.233 84.0134 125.233C103.19 125.233 118.282 129.317 129.29 137.484C140.37 145.652 147.224 156.696 149.851 170.616Z" fill="#AEAEAE"/>
<path d="M149.851 170.616L114.695 174.452C113.701 170.901 111.961 167.562 109.475 164.438C107.06 161.312 103.793 158.791 99.6739 156.874C95.5546 154.956 90.512 153.997 84.5461 153.997C76.5205 153.997 69.7733 155.737 64.3046 159.217C58.9069 162.697 56.2435 167.207 56.3145 172.747C56.2435 177.506 57.9836 181.376 61.5347 184.359C65.1569 187.342 71.1228 189.793 79.4324 191.71L107.344 197.676C122.827 201.014 134.333 206.305 141.861 213.55C149.461 220.794 153.296 230.276 153.367 241.994C153.296 252.293 150.278 261.384 144.312 269.267C138.417 277.08 130.214 283.187 119.702 287.591C109.191 291.994 97.1171 294.196 83.4807 294.196C63.4523 294.196 47.3302 290.006 35.1143 281.625C22.8983 273.173 15.6185 261.419 13.2748 246.362L50.8813 242.74C52.5858 250.126 56.208 255.702 61.7478 259.466C67.2876 263.23 74.4964 265.112 83.3742 265.112C92.5361 265.112 99.887 263.23 105.427 259.466C111.038 255.702 113.843 251.05 113.843 245.51C113.843 240.822 112.032 236.952 108.41 233.898C104.859 230.844 99.3188 228.5 91.7904 226.866L63.8785 221.007C48.1824 217.74 36.5702 212.236 29.0418 204.494C21.5134 196.682 17.7847 186.81 17.8557 174.878C17.7847 164.793 20.5191 156.057 26.0589 148.67C31.6697 141.213 39.4466 135.46 49.3898 131.412C59.404 127.293 70.9452 125.233 84.0134 125.233C103.19 125.233 118.282 129.317 129.29 137.484C140.37 145.652 147.224 156.696 149.851 170.616Z" fill="url(#paint0_radial_507_2)"/>
<path d="M234.989 294.196C218.582 294.196 204.413 290.787 192.482 283.969C180.621 277.08 171.494 267.349 165.102 254.778C158.71 242.136 155.514 227.257 155.514 210.141C155.514 193.308 158.71 178.536 165.102 165.822C171.565 153.038 180.585 143.095 192.162 135.993C203.739 128.82 217.339 125.233 232.964 125.233C243.05 125.233 252.567 126.866 261.516 130.134C270.536 133.33 278.49 138.301 285.379 145.048C292.339 151.795 297.808 160.389 301.786 170.83C305.763 181.199 307.751 193.557 307.751 207.903V219.729H173.625V193.734H270.784C270.713 186.348 269.115 179.778 265.99 174.026C262.865 168.202 258.497 163.621 252.886 160.283C247.347 156.945 240.884 155.276 233.497 155.276C225.614 155.276 218.689 157.193 212.723 161.028C206.757 164.793 202.105 169.764 198.767 175.943C195.5 182.051 193.831 188.763 193.76 196.078V218.77C193.76 228.287 195.5 236.455 198.98 243.273C202.46 250.02 207.325 255.205 213.575 258.827C219.825 262.378 227.141 264.153 235.521 264.153C241.132 264.153 246.21 263.372 250.756 261.81C255.301 260.176 259.243 257.797 262.581 254.672C265.919 251.547 268.44 247.676 270.145 243.06L306.153 247.108C303.881 256.625 299.548 264.935 293.156 272.037C286.835 279.068 278.739 284.537 268.866 288.443C258.994 292.278 247.702 294.196 234.989 294.196Z" fill="#AEAEAE"/>
<path d="M234.989 294.196C218.582 294.196 204.413 290.787 192.482 283.969C180.621 277.08 171.494 267.349 165.102 254.778C158.71 242.136 155.514 227.257 155.514 210.141C155.514 193.308 158.71 178.536 165.102 165.822C171.565 153.038 180.585 143.095 192.162 135.993C203.739 128.82 217.339 125.233 232.964 125.233C243.05 125.233 252.567 126.866 261.516 130.134C270.536 133.33 278.49 138.301 285.379 145.048C292.339 151.795 297.808 160.389 301.786 170.83C305.763 181.199 307.751 193.557 307.751 207.903V219.729H173.625V193.734H270.784C270.713 186.348 269.115 179.778 265.99 174.026C262.865 168.202 258.497 163.621 252.886 160.283C247.347 156.945 240.884 155.276 233.497 155.276C225.614 155.276 218.689 157.193 212.723 161.028C206.757 164.793 202.105 169.764 198.767 175.943C195.5 182.051 193.831 188.763 193.76 196.078V218.77C193.76 228.287 195.5 236.455 198.98 243.273C202.46 250.02 207.325 255.205 213.575 258.827C219.825 262.378 227.141 264.153 235.521 264.153C241.132 264.153 246.21 263.372 250.756 261.81C255.301 260.176 259.243 257.797 262.581 254.672C265.919 251.547 268.44 247.676 270.145 243.06L306.153 247.108C303.881 256.625 299.548 264.935 293.156 272.037C286.835 279.068 278.739 284.537 268.866 288.443C258.994 292.278 247.702 294.196 234.989 294.196Z" fill="url(#paint1_radial_507_2)"/>
<path d="M315.525 352.364V127.364H353.451V154.423H355.688C357.677 150.446 360.482 146.22 364.104 141.746C367.726 137.2 372.627 133.33 378.806 130.134C384.985 126.866 392.868 125.233 402.457 125.233C415.099 125.233 426.498 128.464 436.654 134.928C446.881 141.32 454.978 150.801 460.944 163.372C466.981 175.872 469.999 191.213 469.999 209.395C469.999 227.364 467.052 242.634 461.157 255.205C455.262 267.776 447.236 277.364 437.08 283.969C426.924 290.574 415.418 293.876 402.563 293.876C393.188 293.876 385.411 292.314 379.232 289.189C373.053 286.064 368.082 282.3 364.317 277.896C360.624 273.422 357.748 269.196 355.688 265.219H354.09V352.364H315.525ZM353.344 209.182C353.344 219.764 354.836 229.033 357.819 236.987C360.873 244.942 365.241 251.156 370.922 255.631C376.675 260.034 383.635 262.236 391.803 262.236C400.326 262.236 407.464 259.963 413.216 255.418C418.969 250.801 423.302 244.516 426.214 236.561C429.197 228.536 430.688 219.409 430.688 209.182C430.688 199.026 429.232 190.006 426.32 182.122C423.408 174.239 419.076 168.06 413.323 163.585C407.57 159.111 400.397 156.874 391.803 156.874C383.564 156.874 376.569 159.04 370.816 163.372C365.063 167.705 360.695 173.777 357.712 181.589C354.8 189.402 353.344 198.599 353.344 209.182Z" fill="#AEAEAE"/>
<path d="M315.525 352.364V127.364H353.451V154.423H355.688C357.677 150.446 360.482 146.22 364.104 141.746C367.726 137.2 372.627 133.33 378.806 130.134C384.985 126.866 392.868 125.233 402.457 125.233C415.099 125.233 426.498 128.464 436.654 134.928C446.881 141.32 454.978 150.801 460.944 163.372C466.981 175.872 469.999 191.213 469.999 209.395C469.999 227.364 467.052 242.634 461.157 255.205C455.262 267.776 447.236 277.364 437.08 283.969C426.924 290.574 415.418 293.876 402.563 293.876C393.188 293.876 385.411 292.314 379.232 289.189C373.053 286.064 368.082 282.3 364.317 277.896C360.624 273.422 357.748 269.196 355.688 265.219H354.09V352.364H315.525ZM353.344 209.182C353.344 219.764 354.836 229.033 357.819 236.987C360.873 244.942 365.241 251.156 370.922 255.631C376.675 260.034 383.635 262.236 391.803 262.236C400.326 262.236 407.464 259.963 413.216 255.418C418.969 250.801 423.302 244.516 426.214 236.561C429.197 228.536 430.688 219.409 430.688 209.182C430.688 199.026 429.232 190.006 426.32 182.122C423.408 174.239 419.076 168.06 413.323 163.585C407.57 159.111 400.397 156.874 391.803 156.874C383.564 156.874 376.569 159.04 370.816 163.372C365.063 167.705 360.695 173.777 357.712 181.589C354.8 189.402 353.344 198.599 353.344 209.182Z" fill="url(#paint2_radial_507_2)"/>
<path d="M552.989 294.196C536.582 294.196 522.413 290.787 510.482 283.969C498.621 277.08 489.494 267.349 483.102 254.778C476.71 242.136 473.514 227.257 473.514 210.141C473.514 193.308 476.71 178.536 483.102 165.822C489.565 153.038 498.585 143.095 510.162 135.993C521.739 128.82 535.339 125.233 550.964 125.233C561.05 125.233 570.567 126.866 579.516 130.134C588.536 133.33 596.49 138.301 603.379 145.048C610.339 151.795 615.808 160.389 619.786 170.83C623.763 181.199 625.751 193.557 625.751 207.903V219.729H491.625V193.734H588.784C588.713 186.348 587.115 179.778 583.99 174.026C580.865 168.202 576.497 163.621 570.886 160.283C565.347 156.945 558.884 155.276 551.497 155.276C543.614 155.276 536.689 157.193 530.723 161.028C524.757 164.793 520.105 169.764 516.767 175.943C513.5 182.051 511.831 188.763 511.76 196.078V218.77C511.76 228.287 513.5 236.455 516.98 243.273C520.46 250.02 525.325 255.205 531.575 258.827C537.825 262.378 545.141 264.153 553.521 264.153C559.132 264.153 564.21 263.372 568.756 261.81C573.301 260.176 577.243 257.797 580.581 254.672C583.919 251.547 586.44 247.676 588.145 243.06L624.153 247.108C621.881 256.625 617.548 264.935 611.156 272.037C604.835 279.068 596.739 284.537 586.866 288.443C576.994 292.278 565.702 294.196 552.989 294.196Z" fill="#AEAEAE"/>
<path d="M552.989 294.196C536.582 294.196 522.413 290.787 510.482 283.969C498.621 277.08 489.494 267.349 483.102 254.778C476.71 242.136 473.514 227.257 473.514 210.141C473.514 193.308 476.71 178.536 483.102 165.822C489.565 153.038 498.585 143.095 510.162 135.993C521.739 128.82 535.339 125.233 550.964 125.233C561.05 125.233 570.567 126.866 579.516 130.134C588.536 133.33 596.49 138.301 603.379 145.048C610.339 151.795 615.808 160.389 619.786 170.83C623.763 181.199 625.751 193.557 625.751 207.903V219.729H491.625V193.734H588.784C588.713 186.348 587.115 179.778 583.99 174.026C580.865 168.202 576.497 163.621 570.886 160.283C565.347 156.945 558.884 155.276 551.497 155.276C543.614 155.276 536.689 157.193 530.723 161.028C524.757 164.793 520.105 169.764 516.767 175.943C513.5 182.051 511.831 188.763 511.76 196.078V218.77C511.76 228.287 513.5 236.455 516.98 243.273C520.46 250.02 525.325 255.205 531.575 258.827C537.825 262.378 545.141 264.153 553.521 264.153C559.132 264.153 564.21 263.372 568.756 261.81C573.301 260.176 577.243 257.797 580.581 254.672C583.919 251.547 586.44 247.676 588.145 243.06L624.153 247.108C621.881 256.625 617.548 264.935 611.156 272.037C604.835 279.068 596.739 284.537 586.866 288.443C576.994 292.278 565.702 294.196 552.989 294.196Z" fill="url(#paint3_radial_507_2)"/>
<path d="M768.851 170.616L733.695 174.452C732.701 170.901 730.961 167.562 728.475 164.438C726.06 161.312 722.793 158.791 718.674 156.874C714.555 154.956 709.512 153.997 703.546 153.997C695.521 153.997 688.773 155.737 683.305 159.217C677.907 162.697 675.244 167.207 675.315 172.747C675.244 177.506 676.984 181.376 680.535 184.359C684.157 187.342 690.123 189.793 698.432 191.71L726.344 197.676C741.827 201.014 753.333 206.305 760.861 213.55C768.461 220.794 772.296 230.276 772.367 241.994C772.296 252.293 769.278 261.384 763.312 269.267C757.417 277.08 749.214 283.187 738.702 287.591C728.191 291.994 716.117 294.196 702.481 294.196C682.452 294.196 666.33 290.006 654.114 281.625C641.898 273.173 634.619 261.419 632.275 246.362L669.881 242.74C671.586 250.126 675.208 255.702 680.748 259.466C686.288 263.23 693.496 265.112 702.374 265.112C711.536 265.112 718.887 263.23 724.427 259.466C730.038 255.702 732.843 251.05 732.843 245.51C732.843 240.822 731.032 236.952 727.41 233.898C723.859 230.844 718.319 228.5 710.79 226.866L682.878 221.007C667.182 217.74 655.57 212.236 648.042 204.494C640.513 196.682 636.785 186.81 636.856 174.878C636.785 164.793 639.519 156.057 645.059 148.67C650.67 141.213 658.447 135.46 668.39 131.412C678.404 127.293 689.945 125.233 703.013 125.233C722.19 125.233 737.282 129.317 748.29 137.484C759.37 145.652 766.224 156.696 768.851 170.616Z" fill="#AEAEAE"/>
<path d="M768.851 170.616L733.695 174.452C732.701 170.901 730.961 167.562 728.475 164.438C726.06 161.312 722.793 158.791 718.674 156.874C714.555 154.956 709.512 153.997 703.546 153.997C695.521 153.997 688.773 155.737 683.305 159.217C677.907 162.697 675.244 167.207 675.315 172.747C675.244 177.506 676.984 181.376 680.535 184.359C684.157 187.342 690.123 189.793 698.432 191.71L726.344 197.676C741.827 201.014 753.333 206.305 760.861 213.55C768.461 220.794 772.296 230.276 772.367 241.994C772.296 252.293 769.278 261.384 763.312 269.267C757.417 277.08 749.214 283.187 738.702 287.591C728.191 291.994 716.117 294.196 702.481 294.196C682.452 294.196 666.33 290.006 654.114 281.625C641.898 273.173 634.619 261.419 632.275 246.362L669.881 242.74C671.586 250.126 675.208 255.702 680.748 259.466C686.288 263.23 693.496 265.112 702.374 265.112C711.536 265.112 718.887 263.23 724.427 259.466C730.038 255.702 732.843 251.05 732.843 245.51C732.843 240.822 731.032 236.952 727.41 233.898C723.859 230.844 718.319 228.5 710.79 226.866L682.878 221.007C667.182 217.74 655.57 212.236 648.042 204.494C640.513 196.682 636.785 186.81 636.856 174.878C636.785 164.793 639.519 156.057 645.059 148.67C650.67 141.213 658.447 135.46 668.39 131.412C678.404 127.293 689.945 125.233 703.013 125.233C722.19 125.233 737.282 129.317 748.29 137.484C759.37 145.652 766.224 156.696 768.851 170.616Z" fill="url(#paint4_radial_507_2)"/>
<defs>
<radialGradient id="paint0_radial_507_2" cx="0" cy="0" r="1" gradientUnits="userSpaceOnUse" gradientTransform="translate(83.028 182.301) rotate(90) scale(182.301 83.028)">
<stop stop-color="#64A04A"/>
<stop offset="0.885417" stop-color="#AEAEAE"/>
</radialGradient>
<radialGradient id="paint1_radial_507_2" cx="0" cy="0" r="1" gradientUnits="userSpaceOnUse" gradientTransform="translate(231.646 182.301) rotate(90) scale(182.301 89.6461)">
<stop stop-color="#64A04A"/>
<stop offset="0.885417" stop-color="#AEAEAE"/>
</radialGradient>
<radialGradient id="paint2_radial_507_2" cx="0" cy="0" r="1" gradientUnits="userSpaceOnUse" gradientTransform="translate(389.459 182.301) rotate(90) scale(182.301 94.4594)">
<stop stop-color="#64A04A"/>
<stop offset="0.885417" stop-color="#AEAEAE"/>
</radialGradient>
<radialGradient id="paint3_radial_507_2" cx="0" cy="0" r="1" gradientUnits="userSpaceOnUse" gradientTransform="translate(549.646 182.301) rotate(90) scale(182.301 89.6461)">
<stop stop-color="#64A04A"/>
<stop offset="0.885417" stop-color="#AEAEAE"/>
</radialGradient>
<radialGradient id="paint4_radial_507_2" cx="0" cy="0" r="1" gradientUnits="userSpaceOnUse" gradientTransform="translate(702.028 182.301) rotate(90) scale(182.301 83.028)">
<stop stop-color="#64A04A"/>
<stop offset="0.885417" stop-color="#AEAEAE"/>
</radialGradient>
</defs>
</svg>
