<svg width="636" height="695" viewBox="0 0 636 695" fill="none" xmlns="http://www.w3.org/2000/svg">
<circle cx="318" cy="318" r="318" fill="#D9D9D9"/>
<path d="M162.343 554.196C145.936 554.196 131.767 550.787 119.835 543.969C107.975 537.08 98.8482 527.349 92.4561 514.778C86.0641 502.136 82.8681 487.257 82.8681 470.141C82.8681 453.308 86.0641 438.536 92.4561 425.822C98.9192 413.038 107.939 403.095 119.516 395.993C131.093 388.82 144.693 385.233 160.318 385.233C170.404 385.233 179.921 386.866 188.869 390.134C197.889 393.33 205.844 398.301 212.733 405.048C219.693 411.795 225.162 420.389 229.139 430.83C233.117 441.199 235.105 453.557 235.105 467.903V479.729H100.979V453.734H198.138C198.067 446.348 196.469 439.778 193.344 434.026C190.219 428.202 185.851 423.621 180.24 420.283C174.7 416.945 168.237 415.276 160.851 415.276C152.968 415.276 146.043 417.193 140.077 421.028C134.111 424.793 129.459 429.764 126.121 435.943C122.854 442.051 121.185 448.763 121.114 456.078V478.77C121.114 488.287 122.854 496.455 126.334 503.273C129.814 510.02 134.679 515.205 140.929 518.827C147.179 522.378 154.494 524.153 162.875 524.153C168.486 524.153 173.564 523.372 178.11 521.81C182.655 520.176 186.597 517.797 189.935 514.672C193.273 511.547 195.794 507.676 197.499 503.06L233.507 507.108C231.235 516.625 226.902 524.935 220.51 532.037C214.189 539.068 206.093 544.537 196.22 548.443C186.348 552.278 175.056 554.196 162.343 554.196Z" fill="url(#paint0_linear_512_2)"/>
<path d="M478.343 554.196C461.936 554.196 447.767 550.787 435.835 543.969C423.975 537.08 414.848 527.349 408.456 514.778C402.064 502.136 398.868 487.257 398.868 470.141C398.868 453.308 402.064 438.536 408.456 425.822C414.919 413.038 423.939 403.095 435.516 395.993C447.093 388.82 460.693 385.233 476.318 385.233C486.404 385.233 495.921 386.866 504.869 390.134C513.889 393.33 521.844 398.301 528.733 405.048C535.693 411.795 541.162 420.389 545.139 430.83C549.117 441.199 551.105 453.557 551.105 467.903V479.729H416.979V453.734H514.138C514.067 446.348 512.469 439.778 509.344 434.026C506.219 428.202 501.851 423.621 496.24 420.283C490.7 416.945 484.237 415.276 476.851 415.276C468.968 415.276 462.043 417.193 456.077 421.028C450.111 424.793 445.459 429.764 442.121 435.943C438.854 442.051 437.185 448.763 437.114 456.078V478.77C437.114 488.287 438.854 496.455 442.334 503.273C445.814 510.02 450.679 515.205 456.929 518.827C463.179 522.378 470.494 524.153 478.875 524.153C484.486 524.153 489.564 523.372 494.11 521.81C498.655 520.176 502.597 517.797 505.935 514.672C509.273 511.547 511.794 507.676 513.499 503.06L549.507 507.108C547.235 516.625 542.902 524.935 536.51 532.037C530.189 539.068 522.093 544.537 512.22 548.443C502.348 552.278 491.056 554.196 478.343 554.196Z" fill="url(#paint1_linear_512_2)"/>
<path d="M165.324 252.616L130.167 256.452C129.173 252.901 127.433 249.562 124.947 246.438C122.532 243.312 119.265 240.791 115.146 238.874C111.027 236.956 105.984 235.997 100.018 235.997C91.9925 235.997 85.2454 237.737 79.7766 241.217C74.3789 244.697 71.7156 249.207 71.7866 254.747C71.7156 259.506 73.4556 263.376 77.0067 266.359C80.6289 269.342 86.5948 271.793 94.9045 273.71L122.816 279.676C138.299 283.014 149.805 288.305 157.333 295.55C164.933 302.794 168.768 312.276 168.839 323.994C168.768 334.293 165.75 343.384 159.784 351.267C153.889 359.08 145.686 365.187 135.174 369.591C124.663 373.994 112.589 376.196 98.9528 376.196C78.9244 376.196 62.8022 372.006 50.5863 363.625C38.3704 355.173 31.0906 343.419 28.7468 328.362L66.3533 324.74C68.0579 332.126 71.68 337.702 77.2198 341.466C82.7596 345.23 89.9684 347.112 98.8462 347.112C108.008 347.112 115.359 345.23 120.899 341.466C126.51 337.702 129.315 333.05 129.315 327.51C129.315 322.822 127.504 318.952 123.882 315.898C120.331 312.844 114.791 310.5 107.262 308.866L79.3505 303.007C63.6545 299.74 52.0423 294.236 44.5138 286.494C36.9854 278.682 33.2567 268.81 33.3278 256.878C33.2567 246.793 35.9911 238.057 41.5309 230.67C47.1417 223.213 54.9187 217.46 64.8619 213.412C74.8761 209.293 86.4173 207.233 99.4854 207.233C118.662 207.233 133.754 211.317 144.762 219.484C155.842 227.652 162.696 238.696 165.324 252.616Z" fill="url(#paint2_linear_512_2)"/>
<path d="M244.065 684.364V459.364H281.991V486.423H284.229C286.217 482.446 289.023 478.22 292.645 473.746C296.267 469.2 301.168 465.33 307.347 462.134C313.526 458.866 321.409 457.233 330.997 457.233C343.639 457.233 355.038 460.464 365.195 466.928C375.422 473.32 383.518 482.801 389.484 495.372C395.521 507.872 398.54 523.213 398.54 541.395C398.54 559.364 395.592 574.634 389.697 587.205C383.803 599.776 375.777 609.364 365.621 615.969C355.464 622.574 343.959 625.876 331.104 625.876C321.729 625.876 313.952 624.314 307.773 621.189C301.594 618.064 296.622 614.3 292.858 609.896C289.165 605.422 286.288 601.196 284.229 597.219H282.631V684.364H244.065ZM281.885 541.182C281.885 551.764 283.376 561.033 286.359 568.987C289.413 576.942 293.781 583.156 299.463 587.631C305.216 592.034 312.176 594.236 320.344 594.236C328.866 594.236 336.004 591.963 341.757 587.418C347.51 582.801 351.842 576.516 354.754 568.561C357.737 560.536 359.229 551.409 359.229 541.182C359.229 531.026 357.773 522.006 354.861 514.122C351.949 506.239 347.616 500.06 341.864 495.585C336.111 491.111 328.938 488.874 320.344 488.874C312.105 488.874 305.109 491.04 299.357 495.372C293.604 499.705 289.236 505.777 286.253 513.589C283.341 521.402 281.885 530.599 281.885 541.182Z" fill="url(#paint3_linear_512_2)"/>
<path d="M604.324 252.616L569.167 256.452C568.173 252.901 566.433 249.562 563.947 246.438C561.532 243.312 558.265 240.791 554.146 238.874C550.027 236.956 544.984 235.997 539.018 235.997C530.993 235.997 524.245 237.737 518.777 241.217C513.379 244.697 510.716 249.207 510.787 254.747C510.716 259.506 512.456 263.376 516.007 266.359C519.629 269.342 525.595 271.793 533.904 273.71L561.816 279.676C577.299 283.014 588.805 288.305 596.333 295.55C603.933 302.794 607.768 312.276 607.839 323.994C607.768 334.293 604.75 343.384 598.784 351.267C592.889 359.08 584.686 365.187 574.174 369.591C563.663 373.994 551.589 376.196 537.953 376.196C517.924 376.196 501.802 372.006 489.586 363.625C477.37 355.173 470.091 343.419 467.747 328.362L505.353 324.74C507.058 332.126 510.68 337.702 516.22 341.466C521.76 345.23 528.968 347.112 537.846 347.112C547.008 347.112 554.359 345.23 559.899 341.466C565.51 337.702 568.315 333.05 568.315 327.51C568.315 322.822 566.504 318.952 562.882 315.898C559.331 312.844 553.791 310.5 546.262 308.866L518.35 303.007C502.654 299.74 491.042 294.236 483.514 286.494C475.985 278.682 472.257 268.81 472.328 256.878C472.257 246.793 474.991 238.057 480.531 230.67C486.142 223.213 493.919 217.46 503.862 213.412C513.876 209.293 525.417 207.233 538.485 207.233C557.662 207.233 572.754 211.317 583.762 219.484C594.842 227.652 601.696 238.696 604.324 252.616Z" fill="url(#paint4_linear_512_2)"/>
<path d="M231.78 324.483C229.894 323.946 228.19 323.62 226.641 322.946C225.961 322.65 225.59 321.636 225.078 320.948C225.7 320.536 226.273 319.945 226.957 319.752C228.156 319.415 229.423 319.326 230.787 319.113C230.88 318.442 230.746 317.521 231.144 317.053C231.594 316.524 232.563 316.077 233.233 316.163C236.314 316.561 239.13 315.798 242.081 315.014C244.025 314.499 246.406 315.104 248.463 315.664C254.838 317.4 260.41 315.327 265.844 312.374C266.5 312.016 267.008 311.38 267.816 310.672C265.16 310.875 262.88 311.047 260.152 311.253C260.633 309.785 260.929 308.881 261.293 307.77C260.104 307.887 259.002 307.997 258.146 308.08C256.868 306.756 255.749 305.601 254.629 304.442C253.039 304.542 250.826 305.343 249.988 304.597C248.274 303.077 246.378 303.72 244.159 303.084C244.901 302.19 245.468 301.503 246.21 300.606C244.661 300.227 243.187 299.866 241.322 299.413C241.944 298.57 242.349 298.02 242.854 297.339C240.982 296.188 238.072 296.04 237.169 293.035C238.942 291.938 240.642 292.588 242.277 292.595C243.61 292.598 244.942 292.578 246.275 292.547C247.189 292.526 248.12 292.334 249.009 292.468C251.469 292.836 253.901 293.654 256.25 291.935C256.686 291.615 257.669 291.715 258.242 291.969C261.811 293.54 265.555 292.781 269.076 292.32C272.971 291.811 276.722 290.178 280.532 289.023C280.965 288.892 281.377 288.689 281.796 288.517C281.634 288.232 281.476 287.943 281.315 287.658C279.378 287.658 277.44 287.658 275.366 287.658C275.125 286.633 274.933 285.808 274.716 284.89C273.387 285.406 272.25 285.946 271.055 286.293C269.55 286.73 267.908 287.479 266.998 285.248C266.892 284.983 266.043 284.852 265.586 284.932C264.25 285.172 263.285 284.928 263.175 283.484C260.575 282.999 257.342 286.455 255.91 282.13C254.175 282.13 252.513 282.13 250.85 282.13C250.139 279.75 245.798 281.717 246.32 278.135C243.974 277.595 241.511 278.269 239.467 276.151C240.37 275.247 241.209 274.408 242.122 273.49C240.583 273.06 239.041 272.785 237.633 272.194C235.706 271.386 235.5 269.894 236.987 268.422C238.413 267.012 240.226 266.48 242.05 267.136C245.293 268.305 248.374 267.759 251.452 266.724C253.846 265.919 256.123 265.933 258.449 266.999C260.564 267.968 262.787 268.305 265.143 267.869C266.479 267.621 267.895 267.831 269.248 267.649C271.474 267.349 273.676 266.899 275.888 266.514C275.891 266.256 275.891 266.002 275.895 265.744C274.768 265.366 273.542 265.149 272.549 264.547C271.886 264.145 271.553 263.196 271.072 262.491C271.68 262.096 272.24 261.56 272.903 261.333C278.165 259.528 283.448 257.788 288.71 255.994C289.092 255.863 289.373 255.447 290.022 254.887C288.339 254.079 286.986 253.161 285.502 252.81C284.544 252.583 283.304 252.999 282.342 253.453C280.923 254.12 279.642 255.079 278.048 256.073C277.664 255.117 277.389 254.436 277.086 253.687C274.696 254.969 272.257 256.279 269.725 257.634C269.179 256.702 268.853 256.145 268.492 255.526C268.176 255.622 267.847 255.691 267.544 255.822C266.39 256.32 265.263 256.887 264.089 257.338C262.461 257.964 261.379 257.585 261.53 255.426C259.771 255.863 258.263 256.386 256.71 256.595C253.54 257.025 252.918 256.093 254.203 252.8C253.543 252.648 252.898 252.549 252.283 252.349C251.75 252.177 251.256 251.892 250.366 251.479C251.187 250.489 251.86 249.674 252.781 248.567C251.355 248.382 250.081 248.268 248.831 248.035C247.944 247.869 247.007 247.687 246.251 247.244C245.753 246.952 245.179 246.102 245.276 245.635C245.413 244.968 246.021 244.146 246.632 243.899C247.422 243.579 248.425 243.661 249.322 243.744C252.063 243.998 254.564 243.428 256.752 241.722C258.782 240.144 260.942 239.718 263.518 240.223C264.992 240.512 266.637 240.007 268.197 239.794C270.33 239.501 272.466 239.206 274.579 238.8C276.08 238.511 277.547 238.044 279.374 237.562C278.797 236.503 278.522 235.929 278.186 235.4C277.598 234.478 277.073 233.351 278.014 232.608C278.797 231.989 280.315 231.381 280.999 231.738C282.929 232.749 284.441 232.491 286.069 231.281C286.478 230.978 287.161 230.892 287.697 230.937C289.246 231.068 289.868 230.012 290.407 228.51C288.964 228.922 287.515 229.328 286.076 229.751C283.283 230.573 283.008 230.476 281.49 228.032C279.35 228.372 277.561 230.542 275.056 229.28C274.819 229.16 274.17 229.892 273.7 230.208C272.563 230.968 271.484 231.883 270.244 232.409C269.512 232.718 267.809 232.584 267.754 232.357C267.197 230.071 265.174 231.023 263.622 230.342C263.622 229.469 263.622 228.513 263.622 227.293C259.431 227.723 257.531 224.247 253.952 221.981C255.532 221.204 256.367 220.503 257.26 220.41C260.19 220.1 263.137 219.585 266.016 221.005C266.912 221.445 268.145 221.269 269.22 221.256C270.467 221.238 271.718 221.132 272.954 220.974C274.126 220.822 275.283 220.554 276.685 220.293C275.238 218.192 273.428 219.169 271.989 218.736C270.643 218.33 269.378 217.642 267.62 216.879C267.476 216.913 266.823 217.12 266.153 217.23C263.934 217.594 263.288 217.137 262.965 214.892C262.619 212.499 260.788 211.027 259.517 209.212C259.204 208.765 258.4 208.535 258.294 208.091C258.071 207.163 257.861 206.039 258.191 205.21C258.644 204.079 259.795 204.55 260.568 204.997C262.299 205.998 263.869 205.726 265.731 205.152C268.348 204.347 271.103 204.705 273.823 205.272C275.208 205.561 276.719 205.43 278.144 205.258C279.591 205.083 281.044 204.726 282.421 204.241C283.407 203.894 284.276 203.213 285.708 202.381C283.816 200.951 282.4 199.905 281.013 198.829C279.498 197.657 277.763 196.705 277.701 194.35C277.684 193.738 276.76 193.146 276.296 192.596C272.284 193.562 272.284 193.562 270.643 190.908C266.974 191.407 266.974 191.407 265.59 188.003C262.636 188.732 261.368 186.483 260.025 184.537C259.036 183.104 259.682 181.732 261.447 181.643C262.907 181.567 264.023 181.491 264.855 180.016C265.549 178.782 266.929 178.658 268.217 179.195C269.688 179.807 271.117 180.522 272.566 181.192C274.222 178.634 271.725 177.142 270.959 175.172C272.394 173.567 273.806 174.223 275.304 174.89C278.193 176.18 281.081 178.232 284.042 178.366C286.879 178.493 289.535 179.047 292.269 179.477C292.76 179.552 293.444 179.26 293.842 178.913C296.381 176.706 299.328 175.327 302.512 174.048C301.45 174.137 300.375 174.141 299.331 174.333C297.937 174.591 296.563 176.114 295.195 174.278C295.151 174.22 294.962 174.227 294.862 174.261C293.464 174.767 292.046 175.224 290.685 175.812C289.25 176.431 288.291 174.344 286.612 175.358C285.612 175.96 284.018 175.574 282.476 175.643C282.476 174.323 282.476 173.374 282.476 172.759C279.642 170.827 276.032 171.243 273.466 168.953C270.749 169.293 270.371 165.625 268.039 165.814C267.726 164.501 267.462 163.383 267.108 161.884C268.015 161.795 268.959 161.657 269.911 161.619C271.618 161.551 273.483 162.372 274.706 160.182C274.95 159.746 276.609 159.952 277.581 160.096C279.278 160.347 280.824 160.76 282.418 159.395C283.001 158.897 284.623 159.172 285.54 159.594C287.673 160.578 289.607 161.637 291.764 159.601C292.245 159.148 293.299 159.062 294.041 159.161C296.26 159.46 297.974 158.577 299.778 157.418C301.172 156.521 302.869 155.974 304.504 155.606C306.359 155.19 307.307 154.269 307.369 151.972C301.055 152.454 295.23 154.561 289.14 156.088C288.971 155.462 288.806 154.833 288.638 154.21C287.419 154.266 286.199 154.324 284.88 154.382C284.77 153.537 284.688 152.904 284.588 152.161C283.032 152.103 281.353 152.44 280.621 150.356C280.473 149.937 278.976 149.999 278.031 149.824C277.866 149.188 277.705 148.569 277.533 147.912C276.228 147.97 274.967 148.111 273.72 148.053C272.958 148.019 271.731 147.888 271.532 147.438C270.567 145.248 268.654 144.804 266.682 144.326C266.236 144.22 265.83 143.962 265.174 143.669C268.286 140.51 271.309 142.645 274.023 142.287C276.266 139.155 276.922 138.922 280.491 140.647C282.122 141.435 283.606 141.803 285.399 141.177C286.43 140.816 287.738 140.658 288.748 140.971C290.96 141.655 293.121 141.73 295.426 141.71C299.472 141.672 303.522 142.195 307.888 142.504C308.028 141.466 308.155 140.527 308.365 138.97C305.72 139.802 303.542 140.486 301.066 141.259C300.966 140.097 300.908 139.379 300.842 138.609C299.06 138.609 297.27 138.609 295.127 138.609C295.299 137.388 295.429 136.446 295.573 135.432C294.086 134.638 290.898 136.016 291.537 132.506C290.053 132.118 288.655 131.75 286.814 131.265C287.529 130.093 288.023 129.281 288.604 128.329C287.02 127.188 283.287 127.353 285.344 123.753C284.461 122.711 283.675 121.779 283.149 121.161C283.723 119.177 284.166 117.644 284.671 115.9C286.618 114.965 288.398 115.904 290.246 116.904C291.503 117.585 292.928 117.953 294.258 118.513C295.051 118.85 296.126 119.088 296.514 119.717C297.552 121.405 299.087 121.914 300.836 122.099C302.848 122.316 304.116 123.272 304.944 125.193C305.425 126.307 306.565 127.136 307.699 127.868C307.915 125.479 306.737 123.815 304.958 122.787C303.316 121.838 301.375 121.418 299.609 120.666C298.84 120.339 298.18 119.758 297.469 119.294C297.93 118.606 298.39 117.919 298.912 117.138C297.799 116.189 296.487 115.075 294.931 113.752C297.912 111.603 299.122 114.8 301.282 114.9C301.852 114.102 302.515 113.178 303.432 111.895C304.758 114.584 305.878 116.853 306.994 119.122C307.252 119.032 307.506 118.943 307.764 118.85C307.235 116.33 306.885 113.755 306.125 111.311C305.438 109.097 303.989 108.842 302.203 110.331C301.176 111.187 300.197 112.098 298.624 113.494C298.318 111.689 298.125 110.551 297.923 109.365C297.878 109.358 297.645 109.231 297.49 109.296C296.477 109.702 295.378 110.785 294.436 109.482C293.385 108.024 294.862 107.288 295.683 106.425C295.989 106.105 296.291 105.786 296.669 105.39C294.979 102.65 290.967 100.952 292.873 96.424C296.023 96.8193 297.634 99.642 300.365 100.691C300.801 99.5388 301.248 98.3596 301.88 96.699C304.466 99.0575 304.449 102.441 306.757 104.462C307.046 102.038 306.503 99.8689 305.335 97.8886C304.116 95.8223 302.708 93.8661 301.444 91.8239C300.64 90.5243 299.486 89.2282 300.932 87.1413C302.831 88.6127 304.624 90.0017 306.998 91.8376C306.878 89.9261 306.764 88.8328 306.751 87.736C306.737 86.5946 306.672 85.4222 306.902 84.3186C307.166 83.0397 307.925 81.7367 309.389 82.0461C310.058 82.1871 310.766 83.4763 310.941 84.3496C311.319 86.2061 311.36 88.128 311.556 90.2046C313.809 89.1628 314.27 86.3849 316.866 86.072C317.327 87.5882 316.454 88.6334 315.767 89.5376C313.332 92.7384 312.044 96.2899 312.016 100.574C314.211 99.4426 313.94 96.8365 315.565 94.9387C316.248 96.3208 316.753 97.3419 317.182 98.2083C319.604 96.6371 321.926 95.0763 324.32 93.6357C324.664 93.4294 325.361 93.8111 325.948 93.9314C326.227 97.2422 322.888 97.7442 321.61 99.9961C323.63 101.069 326.649 99.3325 327.948 102.135C327.594 103.933 326.264 104.256 324.842 104.232C323.592 104.211 322.338 104.022 321.102 103.812C318.268 103.331 316.097 104.414 314.362 106.927C315.554 106.776 316.743 106.611 317.938 106.477C320.181 106.222 322.304 106.573 324.045 108.096C324.482 108.478 324.932 109.574 324.743 109.791C324.303 110.293 323.462 110.737 322.816 110.695C321.737 110.626 320.683 110.159 319.343 109.784C319.343 111.428 319.343 112.755 319.343 114.209C316.001 114.79 315.362 111.345 313.195 110.458C311.353 113.184 311.508 119.61 313.596 126.046C317.021 124.416 319.738 122.134 321.363 118.675C321.947 117.434 322.39 116.12 323.018 114.903C323.403 114.161 324.015 113.535 324.815 112.476C325.347 113.769 325.667 114.549 326.024 115.423C326.306 115.347 326.69 115.357 326.903 115.168C328.964 113.353 330.953 111.452 333.059 109.691C333.959 108.938 335.085 108.457 336.693 107.508C336.703 112.084 332.835 113.704 331.534 117.303C333.777 116.536 335.618 115.907 337.62 115.223C337.885 117.183 336.672 118.011 335.841 119.008C335.048 119.961 334.199 120.865 333.255 121.924C334.78 122.546 336.61 122.722 337.174 123.66C337.971 124.987 337.837 126.875 338.228 129.316C336.332 128.525 335.161 128.037 333.804 127.469C333.206 128.315 332.581 129.206 331.716 130.433C330.733 129.635 329.747 129.068 329.081 128.243C327.827 126.689 326.58 126.689 324.877 127.514C322.311 128.759 319.621 129.756 316.97 130.822C315.125 131.564 314.551 132.788 315.431 134.71C319.106 132.771 322.778 130.835 326.763 128.738C327.329 129.553 328.133 130.282 328.404 131.176C329.081 133.421 330.606 133.864 332.64 133.644C333.316 133.572 334.096 133.421 334.67 133.672C335.309 133.95 336.171 134.634 336.188 135.167C336.205 135.721 335.429 136.508 334.814 136.814C334.141 137.148 333.244 137.003 332.458 137.151C331.255 137.374 330.063 137.67 328.676 137.98C328.947 139.32 329.157 140.366 329.459 141.865C328.215 141.393 327.333 141.06 326.354 140.689C325.213 141.462 324.025 142.27 322.52 143.295C322.208 142.085 321.998 141.259 321.748 140.29C319.604 139.362 317.718 140.173 315.712 141.149C318.168 142.394 320.401 143.522 323.64 145.162C325.045 145.265 327.257 141.548 330.098 144.649C331.334 143.467 332.413 142.466 333.454 141.435C335.288 139.619 336.119 139.802 337.033 142.267C337.263 142.889 337.428 143.539 337.559 143.969C341.261 145.268 344.717 146.478 348.142 147.682C348.313 149.82 346.118 149.301 345.428 150.36C346.29 151.037 347.145 151.714 348.032 152.412C347.005 154.369 345.672 154.369 344.123 153.784C342.141 153.038 340.145 152.333 337.435 151.35C338.373 152.863 338.871 153.66 339.376 154.479C337.926 156.294 336.566 155.159 335.305 154.616C333.313 153.76 331.386 152.753 329.418 151.845C329.036 151.67 328.576 151.67 327.865 151.536C328.346 152.509 328.71 153.244 329.177 154.193C325.516 156.129 323.764 152.835 321.229 151.484C320.851 152.67 320.528 153.678 320.167 154.809C317.725 154.451 316.705 152.598 315.122 151.151C315.18 152.251 315.073 153.392 315.328 154.448C315.829 156.517 317.038 157.212 319.168 156.827C319.951 156.686 320.703 156.37 321.486 156.215C323.084 155.899 324.736 155.51 325.488 157.638C325.557 157.831 325.715 158.03 325.883 158.144C327.192 159.017 328.662 160.492 329.054 161.458C332.818 161.475 335.322 157.944 339.173 157.563C339.372 158.367 339.547 159.079 339.733 159.832C340.739 159.612 341.698 159.398 342.907 159.134C343.147 160.519 343.353 161.699 343.57 162.953C345.517 163.531 347.118 162.751 348.849 162.097C351.504 161.097 354.263 160.334 357.024 159.677C358.144 159.412 359.391 159.694 360.562 159.725C360.947 162.396 358.415 162.596 357.828 164.146C358.721 164.49 359.594 164.827 360.628 165.226C359.82 166.931 358.412 167.083 357.127 167.375C355.702 167.701 354.531 168.114 353.345 169.273C352.291 170.304 350.216 170.335 348.567 170.703C347.613 170.916 346.524 170.596 346.249 172.126C346.18 172.508 344.947 172.827 344.222 172.903C342.999 173.03 341.753 172.937 340.392 172.937C340.585 173.632 340.743 174.206 341.079 175.416C338.902 174.907 337.167 174.557 335.46 174.086C334.144 173.721 332.976 173.498 331.503 173.828C329.94 174.179 328.102 173.773 326.491 173.312C323.183 172.37 320.102 170.909 317.547 168.416C318.048 170.369 319.511 171.562 321.019 172.656C325.608 175.977 330.665 178.301 336.119 179.865C338.232 180.47 340.2 181.577 343.171 182.86C345.95 182.705 349.639 179.325 353.655 182.014C355.382 181.56 357.145 180.621 358.814 180.773C360.981 180.969 360.219 183.558 361.191 185.27C363.788 183.953 366.319 182.667 368.851 181.385C369.029 181.653 369.208 181.925 369.383 182.193C366.951 184.283 364.921 186.855 362.005 188.347C361.091 188.814 359.783 188.587 358.659 188.56C357.807 188.539 356.962 188.326 356.114 188.199C355.98 188.402 355.843 188.608 355.709 188.811C356.873 189.591 358.038 190.372 359.247 191.183C356.835 194.198 354.115 193.022 351.7 193.463C351.219 194.209 350.872 195.374 350.134 195.742C349.189 196.21 347.922 196.137 346.798 196.096C345.782 196.058 344.775 195.745 343.765 195.549C342.879 195.374 341.993 195.192 340.76 194.944C341.072 196.144 341.334 197.138 341.588 198.111C339.726 198.778 339.726 198.778 331.963 195.721C331.963 196.292 331.963 196.822 331.963 197.544C328.82 197.64 326.951 194.645 324.09 194.109C323.225 196.505 323.273 197.196 325.2 198.221C327.202 199.287 329.387 200.029 331.53 200.803C333.141 201.384 334.924 201.563 336.435 202.316C339.743 203.966 343.013 203.856 346.431 202.831C348.396 202.243 350.419 201.752 352.449 201.518C355.485 201.171 356.045 201.666 357.086 204.846C358.652 204.193 360.184 203.478 361.771 202.91C364.952 201.772 365.694 202.216 366.481 205.705C367.666 205.461 368.851 205.09 370.053 204.994C372.214 204.818 373.031 205.919 372.378 207.933C371.99 209.14 370.836 210.13 371.777 211.725C371.963 212.038 370.427 213.682 369.431 214.307C367.717 215.38 366.014 216.246 364.64 217.928C363.674 219.11 361.682 219.502 360.095 220.1C359.271 220.41 358.33 220.396 357.491 220.52C357.004 224.116 356.482 224.536 352.909 224.553C350.848 224.563 348.842 223.889 346.812 225.625C345.895 226.413 343.487 225.894 341.938 225.392C340.124 224.804 338.507 223.597 336.817 222.645C335.669 221.998 334.543 221.318 332.849 220.327C333.354 222.655 333.516 224.381 334.141 225.924C334.519 226.86 335.484 227.75 336.408 228.228C338.022 229.06 339.832 229.507 341.519 230.212C344.068 231.278 346.606 231.336 349.227 230.504C351.607 229.748 353.978 228.778 356.567 229.641C356.866 229.741 357.248 229.624 357.584 229.576C361.473 229.026 361.473 229.026 362.16 233.045C363.774 232.45 365.337 231.876 366.896 231.295C369.411 230.356 371.843 229.878 373.443 232.594C376.064 232.467 377.634 229.507 380.533 230.772C380.828 233.471 379.458 235.86 377.864 237.449C376.222 239.085 373.519 239.649 371.059 240.784C371.217 240.973 371.671 241.372 371.939 241.87C372.437 242.792 371.997 243.507 371.083 243.672C370.087 243.85 369.04 243.747 368.016 243.758C365.309 243.789 362.606 243.816 359.741 244.49C360.301 244.937 360.851 245.391 361.418 245.824C362.4 246.57 363.939 247.182 363.492 248.64C362.967 250.362 361.211 249.719 359.917 249.764C359.14 249.791 358.36 249.616 357.45 249.52C357.704 250.482 357.924 251.301 358.199 252.339C354.592 252.638 351.528 251.139 348.035 250.692C348.427 252.219 349.471 252.714 350.563 253.243C355.527 255.646 360.779 255.598 366.031 254.887C369.074 254.474 372.042 253.508 375.061 252.868C376.679 252.528 378.359 251.926 380.135 253.126C379.135 255.842 376.068 255.409 374.381 257.169C375.676 257.988 376.885 258.754 378.335 259.672C375.752 261.914 373.028 259.48 370.895 260.47C370.458 261.873 370.046 263.2 369.603 264.623C369.785 264.757 370.204 265.06 370.853 265.534C368.377 267.205 365.904 266.222 363.64 266.964C365.801 266.964 367.975 267.098 370.122 266.927C372.275 266.755 374.426 266.359 376.545 265.909C378.778 265.434 381 264.864 383.178 264.176C385.194 263.54 387.145 262.694 389.337 261.862C389.546 264.915 386.675 265.789 385.503 267.875C386.891 268.395 388.117 268.852 389.498 269.364C388.468 271.774 385.981 271.509 384.232 272.826C384.985 276.006 381.804 275.669 380.066 277.01C380.107 277.54 380.152 278.159 380.2 278.808C379.825 278.912 379.509 279.07 379.19 279.077C377.263 279.111 375.25 278.066 373.495 280.012C373.114 280.435 371.547 279.909 370.568 279.651C368.497 279.104 366.453 278.447 364.093 277.743C364.248 279.458 365.23 279.816 366.096 280.204C368.287 281.188 370.534 282.054 372.701 283.089C375.679 284.509 378.62 284.533 381.67 283.312C383.631 282.525 385.672 281.934 388.001 281.143C388.001 282.48 388.001 283.219 388.001 283.711C392.329 286.08 396.179 283.522 400.195 282.233C400.658 285.334 398.467 285.715 397.151 286.778C397.807 289.178 397.807 289.178 391.381 291.44C392.105 291.9 392.737 292.303 394.125 293.179C391.26 293.771 389.124 294.211 386.712 294.706C387.901 295.569 388.966 296.346 390.367 297.367C388.413 298.498 386.998 297.893 385.586 297.724C384.59 297.604 383.539 297.463 382.577 297.652C380.502 298.061 378.469 298.677 376.305 299.237C377.16 300.382 378.62 300.578 380.049 300.698C383.353 300.973 386.671 301.107 389.972 301.407C392.504 301.637 392.593 301.812 393.046 304.999C394.839 305.065 396.739 305.288 398.614 305.171C401.579 304.986 404.526 304.521 407.49 304.267C409.022 304.133 410.664 303.782 412.351 305.546C409.297 306.457 406.556 307.272 403.815 308.09C403.815 308.296 403.818 308.506 403.818 308.712C406.061 309.483 408.304 310.249 410.946 311.153C408.627 313.856 405.725 313.151 403.241 314.09C404.131 315.52 403.664 316.451 402.046 316.696C399.343 317.108 396.633 317.517 393.912 317.799C392.463 317.947 390.989 317.827 389.223 317.827C389.948 318.862 390.474 319.614 391.24 320.704C386.609 322.269 382.237 322.286 377.555 321.705C377.266 323.795 375.776 324.28 373.904 324.05C369.596 323.517 365.292 322.956 360.985 322.41C359.752 322.251 358.518 322.1 357.079 322.434C357.766 322.908 358.398 323.506 359.151 323.833C366.553 327.051 374.103 329.609 382.371 328.87C384.191 328.708 386.029 328.715 387.86 328.653C389.265 328.605 390.515 328.571 390.996 330.465C391.133 331.005 392.71 331.531 393.582 331.465C396.54 331.252 399.466 330.692 402.42 330.417C404.141 330.259 405.903 329.213 408.112 330.537C406.735 331.833 405.55 332.951 404.282 334.144C407.085 335.56 410.448 333.944 413 336.32C411.155 339.177 408.057 338.637 405.467 339.775C406.079 340.642 406.673 341.487 407.329 342.416C404.883 345.273 401.981 343.808 399.023 343.787C398.879 345.489 397.392 345.42 396.018 345.434C392.59 345.469 389.162 345.444 385.431 345.444C385.929 346.18 386.311 346.744 386.788 347.449C383.865 349.567 380.99 347.115 378.077 347.569C378.077 348.917 378.077 350.113 378.077 351.361C375.683 352.523 373.807 350.791 371.746 350.529C370.939 353.201 370.269 353.74 367.71 352.981C365.419 352.3 363.245 351.234 361.019 350.337C359.429 349.697 357.842 349.054 356.227 348.405C355.856 351.678 356.749 353.273 359.662 353.902C362.627 354.541 365.354 355.569 367.772 357.419C368.222 357.763 368.727 358.124 369.263 358.255C376.171 359.919 383.082 361.758 390.116 358.812C392.438 357.839 394.743 356.828 397.096 355.934C398.312 355.473 399.607 355.229 401.63 354.682C400.971 356.536 400.583 357.636 400.095 359.004C403.626 359.386 407.319 357.581 410.829 359.802C409.455 362.576 406.357 361.895 404.244 363.549C406.666 363.752 408.885 363.934 411.104 364.12C411.162 364.391 411.221 364.663 411.276 364.935C410.321 365.598 409.366 366.258 408.394 366.936C408.93 367.448 409.462 367.957 410.214 368.675C408.009 372.117 404.117 371.924 400.902 373.32C401.891 374.228 402.781 375.046 404.004 376.174C403.173 376.858 402.606 377.545 401.878 377.875C400.37 378.563 398.762 379.027 397.227 379.649C395.657 380.289 394.118 381.007 392.387 381.774C392.864 382.355 393.321 382.905 393.833 383.528C393.548 383.73 393.294 384.06 393.026 384.074C390.676 384.184 388.327 384.239 385.778 384.318C386.39 386.574 387.691 387.103 389.419 387.306C393.146 387.739 396.856 388.303 400.569 388.843C401.009 388.908 401.551 389.035 401.826 389.334C403.403 391.036 405.275 391.854 407.556 391.163C407.903 394.02 407.686 394.687 405.721 394.942C404.203 395.141 402.561 394.877 401.046 394.516C399.435 394.13 397.91 393.391 395.925 392.649C396.574 394.271 397.021 395.385 397.639 396.936C396.327 397.324 395.207 397.658 393.922 398.036C393.788 398.61 393.61 399.37 393.414 400.202C390.924 401.251 388.742 399.875 386.273 399.312C384.366 401.924 381.917 400.666 379.568 399.927C374.147 404.885 372.21 404.575 365.584 399.288C363.379 399.937 361.404 400.518 358.807 401.285C357.883 403.551 355.554 403.626 352.916 402.777C351.539 402.334 350.46 402.172 348.938 403.162C347.808 403.898 345.644 403.193 343.982 402.901C342.618 402.66 341.533 402.206 340.348 403.637C339.31 404.888 337.741 404.386 336.775 403.19C335.81 401.99 334.738 401.701 333.237 401.629C332.004 401.57 330.671 400.866 329.627 400.109C327.707 398.724 325.966 397.091 323.644 395.131C323.444 399.374 324.53 402.688 325.55 405.947C326.594 409.289 328.051 412.5 329.404 415.972C320.669 417.516 312.006 416.856 302.931 416.88C303.357 415.745 303.587 414.917 303.965 414.164C307.331 407.398 308.966 400.171 309.567 392.697C309.708 390.947 309.313 389.152 309.128 386.928C307.764 387.739 306.929 388.234 305.971 388.805C305.311 388.073 304.727 387.419 303.913 386.512C303.343 388.413 302.842 390.087 302.254 392.054C299.953 390.971 299.08 392.728 297.978 394.093C297.129 395.141 296.247 396.155 294.811 394.251C293.942 397.153 291.596 398.363 289.524 399.745C288.882 400.171 287.604 399.642 286.371 399.525C285.684 400.353 284.819 401.416 283.932 402.457C283.094 403.441 282.314 404.345 280.745 403.527C280.226 403.255 279.264 403.63 278.591 403.912C277.574 404.335 276.633 404.933 275.07 405.775C275.07 403.509 275.07 401.842 275.07 400.03C270.718 399.941 270.055 404.159 266.874 405.834C266.345 404.276 265.861 402.856 265.308 401.227C263.975 402.334 262.673 403.417 261.403 404.472C260.53 404.187 259.74 403.695 258.957 403.709C255.728 403.767 255.728 403.822 254.612 400.848C253.014 400.848 251.359 400.848 249.346 400.848C249.82 399.466 250.163 398.456 250.579 397.238C248.116 397.871 245.774 398.476 243.428 399.078C243.297 398.861 243.17 398.648 243.039 398.431C243.634 397.428 244.228 396.424 244.674 395.667C243.641 394.753 242.009 394.003 241.896 393.068C241.689 391.356 243.603 390.857 244.925 390.273C246.474 389.585 248.109 389.09 250.318 388.289C247.969 387.78 246.512 388.647 245.018 389.18C243.242 389.812 241.858 389.695 241.466 387.385C239.223 388.293 237.969 390.703 235.215 390.62C235.012 389.867 234.82 389.156 234.627 388.444C233.195 388.857 231.804 389.255 230.076 389.754C230.076 388.674 230.076 387.959 230.076 387.007C228.695 386.436 226.644 385.969 228.568 383.225C226.627 383.614 225.178 383.899 223 384.336C224.896 381.379 227.651 381.09 229.76 379.412C228.826 378.752 227.981 378.157 227.088 377.532C231.017 374.345 232.924 373.169 236.338 372.474C237.482 372.241 238.845 372.588 239.996 372.987C241.799 373.612 243.414 373.605 245.303 373.073C248.315 372.227 251.458 371.742 254.581 371.426C257.926 371.089 258.792 370.15 258.449 366.224C256.102 367.039 255.409 370.422 252.204 370.178C252.204 369.012 252.204 367.933 252.204 366.581C249.724 367.747 248.425 370.669 245.011 370.9C245.197 369.353 245.361 367.981 245.588 366.107C244.314 366.661 243.249 367.118 242.188 367.582C241.349 367.946 240.542 368.414 239.67 368.665C237.592 369.256 236.966 368.734 236.747 366.385C236.716 366.059 236.637 365.739 236.568 365.361C234.871 365.612 233.236 365.856 231.488 366.114C231.835 364.12 231.835 364.12 234.727 362.057C231.027 361.779 227.785 361.531 224.151 361.256C224.776 357.704 227.805 357.962 229.588 356.56C229.186 355.824 228.778 355.081 228.352 354.304C228.664 353.96 228.846 353.562 229.104 353.507C230.21 353.263 231.337 352.97 232.456 352.967C238.172 352.95 243.902 352.781 249.525 354.205C251.311 354.655 252.908 354.26 253.884 352.506C252.115 350.024 251.843 349.921 249.102 350.608C246.303 351.306 246.303 351.306 244.729 349.443C243.668 349.653 242.559 349.873 241.215 350.141C240.985 349.546 240.762 348.975 240.46 348.202C237.822 348.865 236.987 346.369 235.259 344.836C235.984 344.238 236.654 343.688 237.344 343.117C237.241 342.972 237.166 342.739 237.028 342.691C235.29 342.092 233.099 342.553 231.811 340.497C232.635 338.702 234.188 338.386 235.795 338.355C237.506 338.324 239.227 338.592 240.937 338.52C245.677 338.321 250.366 337.31 255.178 338.383C256.958 338.778 259.022 338.094 260.918 337.719C262.464 337.413 263.512 336.426 263.872 334.291C261.993 335.11 260.406 335.801 258.627 336.574C258.029 335.443 257.518 334.477 257.013 333.521C254.622 333.411 252.733 337.228 249.528 334.426C247.762 334.941 245.557 336.224 243.273 334.295C242.833 333.924 241.672 334.546 240.948 334.343C240.157 334.123 239.488 333.477 239.027 332.497C238.131 332.497 237.234 332.531 236.341 332.486C235.249 332.431 234.139 332.682 233.562 331.125C233.332 330.51 231.896 330.341 231.01 329.966C230.591 328.791 230.158 327.57 229.602 325.999C230 325.72 230.794 325.17 231.78 324.483Z" fill="#AEAEAE"/>
<defs>
<linearGradient id="paint0_linear_512_2" x1="159" y1="260" x2="159" y2="623" gradientUnits="userSpaceOnUse">
<stop stop-color="#AEAEAE"/>
<stop offset="1" stop-color="#BED9B2"/>
</linearGradient>
<linearGradient id="paint1_linear_512_2" x1="475" y1="260" x2="475" y2="623" gradientUnits="userSpaceOnUse">
<stop stop-color="#AEAEAE"/>
<stop offset="1" stop-color="#BED9B2"/>
</linearGradient>
<linearGradient id="paint2_linear_512_2" x1="98.5" y1="82" x2="98.5" y2="445" gradientUnits="userSpaceOnUse">
<stop stop-color="#AEAEAE"/>
<stop offset="1" stop-color="#BED9B2"/>
</linearGradient>
<linearGradient id="paint3_linear_512_2" x1="318" y1="332" x2="318" y2="695" gradientUnits="userSpaceOnUse">
<stop stop-color="#AEAEAE"/>
<stop offset="1" stop-color="#BED9B2"/>
</linearGradient>
<linearGradient id="paint4_linear_512_2" x1="537.5" y1="82" x2="537.5" y2="445" gradientUnits="userSpaceOnUse">
<stop stop-color="#AEAEAE"/>
<stop offset="1" stop-color="#BED9B2"/>
</linearGradient>
</defs>
</svg>
